<?xml version="1.0" encoding="UTF-8"?>
<svg width="52px" height="59px" viewBox="0 0 52 59" version="1.1" xmlns="http://www.w3.org/2000/svg" xmlns:xlink="http://www.w3.org/1999/xlink">
    <!-- Generator: Sketch 51.3 (57544) - http://www.bohemiancoding.com/sketch -->
    <title>Shape</title>
    <desc>Created with Sketch.</desc>
    <defs>
        <linearGradient x1="50%" y1="50%" x2="50%" y2="-605.425642%" id="linearGradient-1">
            <stop stop-color="#FFFFFF" offset="0%"></stop>
            <stop stop-color="#CCCAAE" offset="100%"></stop>
        </linearGradient>
    </defs>
    <g id="Page-1" stroke="none" stroke-width="1" fill="none" fill-rule="evenodd">
        <g id="Landing-page" transform="translate(-1256.000000, -1568.000000)" fill="url(#linearGradient-1)" fill-rule="nonzero">
            <g id="Group-8" transform="translate(822.000000, 1337.000000)">
                <path d="M484.607143,286.3125 L482.285714,286.3125 L482.285714,233.765625 C482.285714,232.238193 481.038527,231 479.5,231 L440.5,231 C438.961473,231 437.714286,232.238193 437.714286,233.765625 L437.714286,286.3125 L435.392857,286.3125 C434.623652,286.3125 434,286.931654 434,287.695312 L434,290 L486,290 L486,287.695312 C486,286.931654 485.376348,286.3125 484.607143,286.3125 Z M466,285 L454,285 L454,271.875 C454,270.839531 455.007437,270 456.25,270 L463.75,270 C464.992563,270 466,270.839531 466,271.875 L466,285 Z M445,237.125 C445,236.503719 446.007437,236 447.25,236 L454.75,236 C455.992563,236 457,236.503719 457,237.125 L457,240.875 C457,241.496281 455.992563,242 454.75,242 L447.25,242 C446.007437,242 445,241.496281 445,240.875 L445,237.125 Z M445,248.625 C445,248.003719 446.007437,247.5 447.25,247.5 L454.75,247.5 C455.992563,247.5 457,248.003719 457,248.625 L457,252.375 C457,252.996281 455.992563,253.5 454.75,253.5 L447.25,253.5 C446.007437,253.5 445,252.996281 445,252.375 L445,248.625 Z M454.75,265 L447.25,265 C446.007437,265 445,264.496281 445,263.875 L445,260.125 C445,259.503719 446.007437,259 447.25,259 L454.75,259 C455.992563,259 457,259.503719 457,260.125 L457,263.875 C457,264.496281 455.992563,265 454.75,265 Z M475,263.875 C475,264.496281 473.992563,265 472.75,265 L465.25,265 C464.007437,265 463,264.496281 463,263.875 L463,260.125 C463,259.503719 464.007437,259 465.25,259 L472.75,259 C473.992563,259 475,259.503719 475,260.125 L475,263.875 Z M475,252.375 C475,252.996281 473.992563,253.5 472.75,253.5 L465.25,253.5 C464.007437,253.5 463,252.996281 463,252.375 L463,248.625 C463,248.003719 464.007437,247.5 465.25,247.5 L472.75,247.5 C473.992563,247.5 475,248.003719 475,248.625 L475,252.375 Z M475,240.875 C475,241.496281 473.992563,242 472.75,242 L465.25,242 C464.007437,242 463,241.496281 463,240.875 L463,237.125 C463,236.503719 464.007437,236 465.25,236 L472.75,236 C473.992563,236 475,236.503719 475,237.125 L475,240.875 Z" id="Shape"></path>
            </g>
        </g>
    </g>
</svg>