<?xml version="1.0" encoding="UTF-8"?>
<svg width="52px" height="156px" viewBox="0 0 52 156" version="1.1" xmlns="http://www.w3.org/2000/svg" xmlns:xlink="http://www.w3.org/1999/xlink">
    <!-- Generator: Sketch 51.3 (57544) - http://www.bohemiancoding.com/sketch -->
    <title>Shape</title>
    <desc>Created with Sketch.</desc>
    <defs>
        <linearGradient x1="50%" y1="114.256511%" x2="50%" y2="-136.944217%" id="linearGradient-1">
            <stop stop-color="#FFFFFF" offset="0%"></stop>
            <stop stop-color="#CCCAAE" offset="100%"></stop>
        </linearGradient>
    </defs>
    <g id="Page-1" stroke="none" stroke-width="1" fill="none" fill-rule="evenodd">
        <g id="Landing-page" transform="translate(-822.000000, -1420.000000)" fill="url(#linearGradient-1)" fill-rule="nonzero">
            <g id="Group-8" transform="translate(822.000000, 1337.000000)">
                <path d="M26.5,83 C36.7172031,83 45,91.2827969 45,101.5 C45,111.717203 36.7172031,120 26.5,120 C16.2827969,120 8,111.717203 8,101.5 C8,91.2827969 16.2827969,83 26.5,83 Z M39,123 L35.9233333,123 C29.7724375,126.291815 22.4927083,126.433978 16.0766667,123 L13,123 C5.82020833,123 0,129.774022 0,138.130435 L0,181 C0,185.178207 2.91010417,188.565217 6.5,188.565217 L10.8333333,188.565217 L10.8333333,231.434783 C10.8333333,235.612989 13.7434375,239 17.3333333,239 L34.6666667,239 C38.2565625,239 41.1666667,235.612989 41.1666667,231.434783 L41.1666667,188.565217 L45.5,188.565217 C49.0898958,188.565217 52,185.178207 52,181 L52,138.130435 C52,129.774022 46.1797917,123 39,123 Z" id="Shape"></path>
            </g>
        </g>
    </g>
</svg>