<?xml version="1.0" encoding="UTF-8" standalone="no"?>
<svg
   xmlns:dc="http://purl.org/dc/elements/1.1/"
   xmlns:cc="http://creativecommons.org/ns#"
   xmlns:rdf="http://www.w3.org/1999/02/22-rdf-syntax-ns#"
   xmlns:svg="http://www.w3.org/2000/svg"
   xmlns="http://www.w3.org/2000/svg"
   xmlns:sodipodi="http://sodipodi.sourceforge.net/DTD/sodipodi-0.dtd"
   xmlns:inkscape="http://www.inkscape.org/namespaces/inkscape"
   width="1440px"
   height="2645px"
   viewBox="0 0 1440 2645"
   version="1.1"
   id="svg2"
   inkscape:version="0.91 r13725"
   sodipodi:docname="wave.svg">
  <metadata
     id="metadata15">
    <rdf:RDF>
      <cc:Work
         rdf:about="">
        <dc:format>image/svg+xml</dc:format>
        <dc:type
           rdf:resource="http://purl.org/dc/dcmitype/StillImage" />
        <dc:title>Rectangle 4</dc:title>
      </cc:Work>
    </rdf:RDF>
  </metadata>
  <sodipodi:namedview
     pagecolor="#ffffff"
     bordercolor="#666666"
     borderopacity="1"
     objecttolerance="10"
     gridtolerance="10"
     guidetolerance="10"
     inkscape:pageopacity="0"
     inkscape:pageshadow="2"
     inkscape:window-width="1920"
     inkscape:window-height="1056"
     id="namedview13"
     showgrid="false"
     inkscape:zoom="0.22586806"
     inkscape:cx="-341.88365"
     inkscape:cy="1188.572"
     inkscape:window-x="0"
     inkscape:window-y="24"
     inkscape:window-maximized="1"
     inkscape:current-layer="svg2" />
  <!-- Generator: Sketch 51.3 (57544) - http://www.bohemiancoding.com/sketch -->
  <title
     id="title4">Rectangle 4</title>
  <desc
     id="desc6">Created with Sketch.</desc>
  <defs
     id="defs8" />
  <g
     id="Page-1"
     stroke="none"
     stroke-width="1"
     fill="none"
     fill-rule="evenodd"
     style="fill:#ffffff;opacity:0.1">
    <g
       id="Landing-page"
       fill="#303030"
       fill-rule="nonzero"
       style="fill:#ffffff">
      <path
         d="M386.215755,-66.6116388 C656.903357,8.39330337 1808.39827,341.04351 1633.36025,430.707132 C528.953061,996.442231 1102.50749,1249.08128 1396.14348,1383.36204 C1730.14279,1536.10107 1461.04877,2022.55814 1457.96631,2024.27128 C1442.85791,2032.66807 1118.15907,2821.90181 651.803087,3109.10922 C312.348601,3318.16378 -286.607231,3112.07242 -326.824527,3062.12444 C-346.309721,3037.92475 -689.413256,2523.77309 -455.923704,2313.3437 C-165.226163,2051.35635 455.666546,2037.05361 603.239861,1785.40347 C807.871983,1436.45351 89.17139,1624.91023 -148.830362,1126.2841 C-181.421121,1058.00476 335.870017,742.966987 528.135967,562.237265 C613.133479,482.339724 451.046586,398.227181 432.601652,389.550523 C32.0677745,201.135876 -315.646025,47.1926288 -418.446678,-32.7264785 C-189.528492,-101.302731 -57.7458642,-150.403498 -23.0987942,-180.028781 C-23.0987942,-180.028781 113.339389,-142.223067 386.215755,-66.6116388 Z"
         id="Rectangle-4"
         style="fill:#ffffff" />
    </g>
  </g>
</svg>
