<svg width="200" height="391" viewBox="0 0 200 391" fill="none" xmlns="http://www.w3.org/2000/svg">
<rect y="55" width="200" height="3" rx="1" fill="url(#paint0_linear_9542_78807)"/>
<rect y="64" width="200" height="3" rx="1" fill="url(#paint1_linear_9542_78807)"/>
<rect y="73" width="200" height="3" rx="1" fill="url(#paint2_linear_9542_78807)"/>
<rect y="82" width="200" height="3" rx="1" fill="url(#paint3_linear_9542_78807)"/>
<rect y="91" width="200" height="3" rx="1" fill="url(#paint4_linear_9542_78807)"/>
<rect y="100" width="200" height="3" rx="1" fill="url(#paint5_linear_9542_78807)"/>
<rect y="109" width="200" height="3" rx="1" fill="url(#paint6_linear_9542_78807)"/>
<rect y="118" width="200" height="3" rx="1" fill="url(#paint7_linear_9542_78807)"/>
<rect y="127" width="200" height="3" rx="1" fill="url(#paint8_linear_9542_78807)"/>
<rect y="136" width="200" height="3" rx="1" fill="url(#paint9_linear_9542_78807)"/>
<rect y="145" width="200" height="3" rx="1" fill="url(#paint10_linear_9542_78807)"/>
<rect y="154" width="200" height="3" rx="1" fill="url(#paint11_linear_9542_78807)"/>
<rect y="163" width="200" height="3" rx="1" fill="url(#paint12_linear_9542_78807)"/>
<rect y="172" width="200" height="3" rx="1" fill="url(#paint13_linear_9542_78807)"/>
<rect y="181" width="200" height="3" rx="1" fill="url(#paint14_linear_9542_78807)"/>
<rect y="190" width="200" height="3" rx="1" fill="url(#paint15_linear_9542_78807)"/>
<rect y="199" width="200" height="3" rx="1" fill="url(#paint16_linear_9542_78807)"/>
<rect y="208" width="200" height="3" rx="1" fill="url(#paint17_linear_9542_78807)"/>
<rect y="217" width="200" height="3" rx="1" fill="url(#paint18_linear_9542_78807)"/>
<rect y="226" width="200" height="3" rx="1" fill="url(#paint19_linear_9542_78807)"/>
<rect y="235" width="200" height="3" rx="1" fill="url(#paint20_linear_9542_78807)"/>
<rect y="244" width="200" height="3" rx="1" fill="url(#paint21_linear_9542_78807)"/>
<rect y="253" width="200" height="3" rx="1" fill="url(#paint22_linear_9542_78807)"/>
<rect y="262" width="200" height="3" rx="1" fill="url(#paint23_linear_9542_78807)"/>
<rect y="271" width="200" height="3" rx="1" fill="url(#paint24_linear_9542_78807)"/>
<rect y="280" width="200" height="3" rx="1" fill="url(#paint25_linear_9542_78807)"/>
<rect y="289" width="200" height="3" rx="1" fill="url(#paint26_linear_9542_78807)"/>
<rect y="298" width="200" height="3" rx="1" fill="url(#paint27_linear_9542_78807)"/>
<rect y="307" width="200" height="3" rx="1" fill="url(#paint28_linear_9542_78807)"/>
<rect y="316" width="200" height="3" rx="1" fill="url(#paint29_linear_9542_78807)"/>
<rect y="325" width="200" height="3" rx="1" fill="url(#paint30_linear_9542_78807)"/>
<rect y="334" width="200" height="3" rx="1" fill="url(#paint31_linear_9542_78807)"/>
<rect y="343" width="200" height="3" rx="1" fill="url(#paint32_linear_9542_78807)"/>
<rect y="352" width="200" height="3" rx="1" fill="url(#paint33_linear_9542_78807)"/>
<rect y="361" width="200" height="3" rx="1" fill="url(#paint34_linear_9542_78807)"/>
<rect y="370" width="200" height="3" rx="1" fill="url(#paint35_linear_9542_78807)"/>
<rect y="379" width="200" height="3" rx="1" fill="url(#paint36_linear_9542_78807)"/>
<rect y="388" width="200" height="3" rx="1" fill="url(#paint37_linear_9542_78807)"/>
<rect x="65" y="60" width="20" height="20" rx="2" fill="white"/>
<path d="M71.8157 64.1081C71.7652 64.0008 71.6852 63.91 71.5851 63.8464C71.4849 63.7828 71.3687 63.749 71.2501 63.749C71.1314 63.749 71.0152 63.7828 70.9151 63.8464C70.8149 63.91 70.7349 64.0008 70.6844 64.1081L65.6844 74.7331C65.6495 74.8074 65.6295 74.8879 65.6257 74.9698C65.6218 75.0518 65.6342 75.1338 65.662 75.211C65.7182 75.367 65.834 75.4942 65.984 75.5648C66.1341 75.6353 66.3059 75.6434 66.4619 75.5872C66.6179 75.531 66.7451 75.4152 66.8157 75.2652L68.1172 72.4995H74.3829L75.6844 75.2652C75.7194 75.3395 75.7686 75.4061 75.8293 75.4614C75.89 75.5166 75.961 75.5594 76.0382 75.5872C76.1154 75.615 76.1974 75.6274 76.2794 75.6235C76.3614 75.6197 76.4418 75.5997 76.5161 75.5648C76.5904 75.5298 76.657 75.4806 76.7123 75.4199C76.7675 75.3592 76.8103 75.2882 76.8381 75.211C76.8659 75.1338 76.8783 75.0518 76.8744 74.9698C76.8706 74.8879 76.8506 74.8074 76.8157 74.7331L71.8157 64.1081ZM68.7055 71.2495L71.2501 65.8425L73.7946 71.2495H68.7055ZM80.6251 67.4995C79.6282 67.4995 78.8493 67.7706 78.3102 68.3058C78.1974 68.4235 78.1349 68.5805 78.1363 68.7436C78.1376 68.9066 78.2026 69.0626 78.3174 69.1784C78.4321 69.2942 78.5876 69.3606 78.7506 69.3634C78.9136 69.3661 79.0713 69.3051 79.1899 69.1933C79.4868 68.8988 79.9712 68.7495 80.6251 68.7495C81.6587 68.7495 82.5001 69.4527 82.5001 70.312V70.5636C81.9454 70.1925 81.2924 69.9961 80.6251 69.9995C78.9016 69.9995 77.5001 71.2613 77.5001 72.812C77.5001 74.3628 78.9016 75.6245 80.6251 75.6245C81.2926 75.6275 81.9458 75.4302 82.5001 75.0581C82.5078 75.2239 82.5811 75.3798 82.7038 75.4915C82.8265 75.6032 82.9886 75.6616 83.1544 75.6538C83.3201 75.6461 83.476 75.5728 83.5877 75.4501C83.6994 75.3274 83.7578 75.1653 83.7501 74.9995V70.312C83.7501 68.7613 82.3485 67.4995 80.6251 67.4995ZM80.6251 74.3745C79.5915 74.3745 78.7501 73.6714 78.7501 72.812C78.7501 71.9527 79.5915 71.2495 80.6251 71.2495C81.6587 71.2495 82.5001 71.9527 82.5001 72.812C82.5001 73.6714 81.6587 74.3745 80.6251 74.3745Z" fill="#D9D9D9"/>
<rect x="164" y="140" width="20" height="20" rx="2" fill="white"/>
<path d="M174 141.875C172.393 141.875 170.822 142.352 169.486 143.244C168.15 144.137 167.108 145.406 166.493 146.891C165.879 148.375 165.718 150.009 166.031 151.585C166.345 153.161 167.118 154.609 168.255 155.745C169.391 156.882 170.839 157.655 172.415 157.969C173.991 158.282 175.625 158.121 177.109 157.507C178.594 156.892 179.863 155.85 180.756 154.514C181.648 153.178 182.125 151.607 182.125 150C182.123 147.846 181.266 145.781 179.743 144.257C178.219 142.734 176.154 141.877 174 141.875ZM174 156.875C172.64 156.875 171.311 156.472 170.18 155.716C169.05 154.961 168.169 153.887 167.648 152.631C167.128 151.375 166.992 149.992 167.257 148.659C167.522 147.325 168.177 146.1 169.139 145.139C170.1 144.177 171.325 143.522 172.659 143.257C173.992 142.992 175.375 143.128 176.631 143.648C177.887 144.169 178.961 145.05 179.716 146.18C180.472 147.311 180.875 148.64 180.875 150C180.873 151.823 180.148 153.57 178.859 154.859C177.57 156.148 175.823 156.873 174 156.875ZM177.125 151.562C177.125 152.143 176.895 152.699 176.484 153.109C176.074 153.52 175.518 153.75 174.938 153.75H174.625V154.375C174.625 154.541 174.559 154.7 174.442 154.817C174.325 154.934 174.166 155 174 155C173.834 155 173.675 154.934 173.558 154.817C173.441 154.7 173.375 154.541 173.375 154.375V153.75H172.125C171.959 153.75 171.8 153.684 171.683 153.567C171.566 153.45 171.5 153.291 171.5 153.125C171.5 152.959 171.566 152.8 171.683 152.683C171.8 152.566 171.959 152.5 172.125 152.5H174.938C175.186 152.5 175.425 152.401 175.6 152.225C175.776 152.05 175.875 151.811 175.875 151.562C175.875 151.314 175.776 151.075 175.6 150.9C175.425 150.724 175.186 150.625 174.938 150.625H173.063C172.482 150.625 171.926 150.395 171.516 149.984C171.105 149.574 170.875 149.018 170.875 148.438C170.875 147.857 171.105 147.301 171.516 146.891C171.926 146.48 172.482 146.25 173.063 146.25H173.375V145.625C173.375 145.459 173.441 145.3 173.558 145.183C173.675 145.066 173.834 145 174 145C174.166 145 174.325 145.066 174.442 145.183C174.559 145.3 174.625 145.459 174.625 145.625V146.25H175.875C176.041 146.25 176.2 146.316 176.317 146.433C176.434 146.55 176.5 146.709 176.5 146.875C176.5 147.041 176.434 147.2 176.317 147.317C176.2 147.434 176.041 147.5 175.875 147.5H173.063C172.814 147.5 172.575 147.599 172.4 147.775C172.224 147.95 172.125 148.189 172.125 148.438C172.125 148.686 172.224 148.925 172.4 149.1C172.575 149.276 172.814 149.375 173.063 149.375H174.938C175.518 149.375 176.074 149.605 176.484 150.016C176.895 150.426 177.125 150.982 177.125 151.562Z" fill="#D9D9D9"/>
<rect x="82" y="168" width="20" height="20" rx="2" fill="white"/>
<path d="M100.125 177.375H99.4734C99.3235 175.609 98.5538 173.953 97.3005 172.7C96.0472 171.446 94.3911 170.677 92.625 170.527V169.875C92.625 169.709 92.5592 169.55 92.4419 169.433C92.3247 169.316 92.1658 169.25 92 169.25C91.8342 169.25 91.6753 169.316 91.5581 169.433C91.4408 169.55 91.375 169.709 91.375 169.875V170.527C89.6089 170.677 87.9528 171.446 86.6995 172.7C85.4462 173.953 84.6765 175.609 84.5266 177.375H83.875C83.7092 177.375 83.5503 177.441 83.4331 177.558C83.3158 177.675 83.25 177.834 83.25 178C83.25 178.166 83.3158 178.325 83.4331 178.442C83.5503 178.559 83.7092 178.625 83.875 178.625H84.5266C84.6765 180.391 85.4462 182.047 86.6995 183.3C87.9528 184.554 89.6089 185.323 91.375 185.473V186.125C91.375 186.291 91.4408 186.45 91.5581 186.567C91.6753 186.684 91.8342 186.75 92 186.75C92.1658 186.75 92.3247 186.684 92.4419 186.567C92.5592 186.45 92.625 186.291 92.625 186.125V185.473C94.3911 185.323 96.0472 184.554 97.3005 183.3C98.5538 182.047 99.3235 180.391 99.4734 178.625H100.125C100.291 178.625 100.45 178.559 100.567 178.442C100.684 178.325 100.75 178.166 100.75 178C100.75 177.834 100.684 177.675 100.567 177.558C100.45 177.441 100.291 177.375 100.125 177.375ZM92.625 184.219V183.625C92.625 183.459 92.5592 183.3 92.4419 183.183C92.3247 183.066 92.1658 183 92 183C91.8342 183 91.6753 183.066 91.5581 183.183C91.4408 183.3 91.375 183.459 91.375 183.625V184.219C89.9413 184.072 88.602 183.436 87.5829 182.417C86.5639 181.398 85.9275 180.059 85.7812 178.625H86.375C86.5408 178.625 86.6997 178.559 86.8169 178.442C86.9342 178.325 87 178.166 87 178C87 177.834 86.9342 177.675 86.8169 177.558C86.6997 177.441 86.5408 177.375 86.375 177.375H85.7812C85.9275 175.941 86.5639 174.602 87.5829 173.583C88.602 172.564 89.9413 171.928 91.375 171.781V172.375C91.375 172.541 91.4408 172.7 91.5581 172.817C91.6753 172.934 91.8342 173 92 173C92.1658 173 92.3247 172.934 92.4419 172.817C92.5592 172.7 92.625 172.541 92.625 172.375V171.781C94.0587 171.928 95.398 172.564 96.4171 173.583C97.4361 174.602 98.0725 175.941 98.2188 177.375H97.625C97.4592 177.375 97.3003 177.441 97.1831 177.558C97.0658 177.675 97 177.834 97 178C97 178.166 97.0658 178.325 97.1831 178.442C97.3003 178.559 97.4592 178.625 97.625 178.625H98.2188C98.0725 180.059 97.4361 181.398 96.4171 182.417C95.398 183.436 94.0587 184.072 92.625 184.219ZM92 174.875C91.3819 174.875 90.7777 175.058 90.2638 175.402C89.7499 175.745 89.3494 176.233 89.1129 176.804C88.8764 177.375 88.8145 178.003 88.935 178.61C89.0556 179.216 89.3533 179.773 89.7903 180.21C90.2273 180.647 90.7842 180.944 91.3903 181.065C91.9965 181.186 92.6249 181.124 93.1959 180.887C93.7669 180.651 94.255 180.25 94.5983 179.736C94.9417 179.222 95.125 178.618 95.125 178C95.125 177.171 94.7958 176.376 94.2097 175.79C93.6237 175.204 92.8288 174.875 92 174.875ZM92 179.875C91.6292 179.875 91.2666 179.765 90.9583 179.559C90.65 179.353 90.4096 179.06 90.2677 178.718C90.1258 178.375 90.0887 177.998 90.161 177.634C90.2334 177.27 90.412 176.936 90.6742 176.674C90.9364 176.412 91.2705 176.233 91.6342 176.161C91.9979 176.089 92.3749 176.126 92.7175 176.268C93.0601 176.41 93.353 176.65 93.559 176.958C93.765 177.267 93.875 177.629 93.875 178C93.875 178.497 93.6775 178.974 93.3258 179.326C92.9742 179.677 92.4973 179.875 92 179.875Z" fill="#DBDBDB"/>
<rect x="19" y="222" width="20" height="20" rx="2" fill="white"/>
<path d="M29 223.875C27.393 223.875 25.8221 224.352 24.486 225.244C23.1498 226.137 22.1084 227.406 21.4935 228.891C20.8785 230.375 20.7176 232.009 21.0311 233.585C21.3446 235.161 22.1185 236.609 23.2548 237.745C24.3911 238.882 25.8388 239.655 27.4149 239.969C28.991 240.282 30.6247 240.121 32.1093 239.507C33.594 238.892 34.8629 237.85 35.7557 236.514C36.6485 235.178 37.125 233.607 37.125 232C37.1227 229.846 36.266 227.781 34.7427 226.257C33.2195 224.734 31.1542 223.877 29 223.875ZM24.7875 237.43C25.2396 236.723 25.8625 236.141 26.5987 235.738C27.3349 235.334 28.1607 235.123 29 235.123C29.8393 235.123 30.6651 235.334 31.4013 235.738C32.1375 236.141 32.7604 236.723 33.2125 237.43C32.0081 238.366 30.5258 238.875 29 238.875C27.4742 238.875 25.9919 238.366 24.7875 237.43ZM26.5 231.375C26.5 230.881 26.6466 230.397 26.9213 229.986C27.196 229.575 27.5865 229.255 28.0433 229.065C28.5001 228.876 29.0028 228.827 29.4877 228.923C29.9727 229.019 30.4181 229.258 30.7678 229.607C31.1174 229.957 31.3555 230.402 31.452 230.887C31.5484 231.372 31.4989 231.875 31.3097 232.332C31.1205 232.789 30.8001 233.179 30.3889 233.454C29.9778 233.728 29.4945 233.875 29 233.875C28.337 233.875 27.7011 233.612 27.2322 233.143C26.7634 232.674 26.5 232.038 26.5 231.375ZM34.1375 236.563C33.4404 235.553 32.4603 234.772 31.3203 234.317C31.9327 233.835 32.3795 233.174 32.5987 232.426C32.8179 231.678 32.7985 230.88 32.5433 230.143C32.2881 229.407 31.8097 228.768 31.1746 228.316C30.5396 227.864 29.7795 227.621 29 227.621C28.2205 227.621 27.4604 227.864 26.8254 228.316C26.1903 228.768 25.7119 229.407 25.4567 230.143C25.2015 230.88 25.1821 231.678 25.4013 232.426C25.6205 233.174 26.0673 233.835 26.6797 234.317C25.5397 234.772 24.5596 235.553 23.8625 236.563C22.9817 235.573 22.406 234.349 22.2047 233.039C22.0035 231.729 22.1852 230.388 22.7281 229.179C23.2709 227.97 24.1518 226.943 25.2645 226.223C26.3773 225.503 27.6745 225.12 29 225.12C30.3255 225.12 31.6227 225.503 32.7355 226.223C33.8482 226.943 34.7291 227.97 35.2719 229.179C35.8148 230.388 35.9966 231.729 35.7953 233.039C35.594 234.349 35.0183 235.573 34.1375 236.563Z" fill="#D9D9D9"/>
<rect x="83" y="276" width="20" height="20" rx="2" fill="white"/>
<path d="M93 281C92.3819 281 91.7777 281.183 91.2638 281.527C90.7499 281.87 90.3494 282.358 90.1129 282.929C89.8764 283.5 89.8145 284.128 89.935 284.735C90.0556 285.341 90.3533 285.898 90.7903 286.335C91.2273 286.772 91.7842 287.069 92.3903 287.19C92.9965 287.311 93.6249 287.249 94.1959 287.012C94.7669 286.776 95.255 286.375 95.5983 285.861C95.9417 285.347 96.125 284.743 96.125 284.125C96.125 283.296 95.7958 282.501 95.2097 281.915C94.6237 281.329 93.8288 281 93 281ZM93 286C92.6292 286 92.2666 285.89 91.9583 285.684C91.65 285.478 91.4096 285.185 91.2677 284.843C91.1258 284.5 91.0887 284.123 91.161 283.759C91.2334 283.395 91.412 283.061 91.6742 282.799C91.9364 282.537 92.2705 282.358 92.6342 282.286C92.9979 282.214 93.3749 282.251 93.7175 282.393C94.0601 282.535 94.353 282.775 94.559 283.083C94.765 283.392 94.875 283.754 94.875 284.125C94.875 284.622 94.6775 285.099 94.3258 285.451C93.9742 285.802 93.4973 286 93 286ZM93 277.25C91.1773 277.252 89.4298 277.977 88.1409 279.266C86.8521 280.555 86.1271 282.302 86.125 284.125C86.125 286.578 87.2586 289.178 89.4062 291.645C90.3713 292.759 91.4574 293.763 92.6445 294.637C92.7496 294.71 92.8748 294.75 93.0031 294.75C93.1314 294.75 93.2566 294.71 93.3617 294.637C94.5467 293.762 95.6307 292.759 96.5938 291.645C98.7383 289.178 99.875 286.578 99.875 284.125C99.8729 282.302 99.1479 280.555 97.8591 279.266C96.5702 277.977 94.8227 277.252 93 277.25ZM93 293.344C91.7086 292.328 87.375 288.598 87.375 284.125C87.375 282.633 87.9676 281.202 89.0225 280.148C90.0774 279.093 91.5082 278.5 93 278.5C94.4918 278.5 95.9226 279.093 96.9775 280.148C98.0324 281.202 98.625 282.633 98.625 284.125C98.625 288.596 94.2914 292.328 93 293.344Z" fill="#D9D9D9"/>
<rect x="48" y="356" width="20" height="20" rx="2" fill="white"/>
<path d="M64.875 359.125H51.125C50.7935 359.125 50.4755 359.257 50.2411 359.491C50.0067 359.726 49.875 360.043 49.875 360.375V372.875C49.8751 372.982 49.9023 373.086 49.9543 373.179C50.0062 373.272 50.081 373.35 50.1716 373.406C50.2623 373.462 50.3657 373.494 50.4721 373.499C50.5786 373.504 50.6844 373.481 50.7797 373.434L53 372.323L55.2203 373.434C55.3071 373.477 55.4029 373.5 55.5 373.5C55.5971 373.5 55.6929 373.477 55.7797 373.434L58 372.323L60.2203 373.434C60.3071 373.477 60.4029 373.5 60.5 373.5C60.5971 373.5 60.6929 373.477 60.7797 373.434L63 372.323L65.2203 373.434C65.3156 373.481 65.4214 373.504 65.5279 373.499C65.6343 373.494 65.7377 373.462 65.8284 373.406C65.919 373.35 65.9938 373.272 66.0457 373.179C66.0977 373.086 66.1249 372.982 66.125 372.875V360.375C66.125 360.043 65.9933 359.726 65.7589 359.491C65.5245 359.257 65.2065 359.125 64.875 359.125ZM64.875 371.864L63.2797 371.066C63.1929 371.022 63.0971 371 63 371C62.9029 371 62.8071 371.022 62.7203 371.066L60.5 372.177L58.2797 371.066C58.1929 371.022 58.0971 371 58 371C57.9029 371 57.8071 371.022 57.7203 371.066L55.5 372.177L53.2797 371.066C53.1929 371.022 53.0971 371 53 371C52.9029 371 52.8071 371.022 52.7203 371.066L51.125 371.864V360.375H64.875V371.864ZM58.625 364.75C58.625 364.584 58.6908 364.425 58.8081 364.308C58.9253 364.191 59.0842 364.125 59.25 364.125H63C63.1658 364.125 63.3247 364.191 63.4419 364.308C63.5592 364.425 63.625 364.584 63.625 364.75C63.625 364.916 63.5592 365.075 63.4419 365.192C63.3247 365.309 63.1658 365.375 63 365.375H59.25C59.0842 365.375 58.9253 365.309 58.8081 365.192C58.6908 365.075 58.625 364.916 58.625 364.75ZM58.625 367.25C58.625 367.084 58.6908 366.925 58.8081 366.808C58.9253 366.691 59.0842 366.625 59.25 366.625H63C63.1658 366.625 63.3247 366.691 63.4419 366.808C63.5592 366.925 63.625 367.084 63.625 367.25C63.625 367.416 63.5592 367.575 63.4419 367.692C63.3247 367.809 63.1658 367.875 63 367.875H59.25C59.0842 367.875 58.9253 367.809 58.8081 367.692C58.6908 367.575 58.625 367.416 58.625 367.25ZM53 369.125H56.75C56.9158 369.125 57.0747 369.059 57.1919 368.942C57.3092 368.825 57.375 368.666 57.375 368.5V363.5C57.375 363.334 57.3092 363.175 57.1919 363.058C57.0747 362.941 56.9158 362.875 56.75 362.875H53C52.8342 362.875 52.6753 362.941 52.5581 363.058C52.4408 363.175 52.375 363.334 52.375 363.5V368.5C52.375 368.666 52.4408 368.825 52.5581 368.942C52.6753 369.059 52.8342 369.125 53 369.125ZM53.625 364.125H56.125V367.875H53.625V364.125Z" fill="#D9D9D9"/>
<rect x="150" y="329" width="20" height="20" rx="2" fill="white"/>
<path d="M169.375 337.75H167.194L163.483 332.64C163.37 332.486 163.224 332.359 163.055 332.27C162.886 332.181 162.699 332.132 162.508 332.126C162.317 332.121 162.127 332.159 161.954 332.239C161.78 332.318 161.627 332.436 161.505 332.584L160.502 333.748L160.486 333.766C160.428 333.839 160.354 333.898 160.27 333.938C160.186 333.979 160.093 334 160 334C159.907 334 159.814 333.979 159.73 333.938C159.646 333.898 159.572 333.839 159.514 333.766L159.498 333.748L158.495 332.584C158.373 332.436 158.22 332.318 158.046 332.239C157.873 332.159 157.683 332.121 157.492 332.126C157.301 332.132 157.114 332.181 156.945 332.27C156.776 332.359 156.63 332.486 156.517 332.64L152.806 337.75H150.625C150.459 337.75 150.3 337.816 150.183 337.933C150.066 338.05 150 338.209 150 338.375C150 338.541 150.066 338.7 150.183 338.817C150.3 338.934 150.459 339 150.625 339H169.375C169.541 339 169.7 338.934 169.817 338.817C169.934 338.7 170 338.541 170 338.375C170 338.209 169.934 338.05 169.817 337.933C169.7 337.816 169.541 337.75 169.375 337.75ZM157.527 333.375L157.541 333.393L158.545 334.556C158.721 334.773 158.943 334.947 159.195 335.067C159.446 335.186 159.721 335.248 160 335.248C160.279 335.248 160.554 335.186 160.805 335.067C161.057 334.947 161.279 334.773 161.455 334.556L162.459 333.393C162.463 333.387 162.466 333.381 162.472 333.375L165.648 337.75H154.351L157.527 333.375ZM164.062 340.25C163.371 340.25 162.703 340.505 162.188 340.967C161.672 341.428 161.345 342.063 161.268 342.75H158.732C158.655 342.063 158.328 341.429 157.813 340.968C157.298 340.507 156.631 340.252 155.94 340.251C155.249 340.25 154.582 340.504 154.066 340.964C153.55 341.424 153.221 342.057 153.143 342.744C153.064 343.431 153.241 344.122 153.64 344.687C154.039 345.251 154.632 345.649 155.305 345.804C155.978 345.96 156.685 345.862 157.291 345.529C157.897 345.196 158.359 344.652 158.589 344H161.411C161.583 344.486 161.885 344.916 162.285 345.242C162.684 345.568 163.165 345.778 163.676 345.849C164.187 345.919 164.707 345.848 165.18 345.644C165.654 345.439 166.061 345.107 166.359 344.686C166.657 344.265 166.833 343.771 166.868 343.256C166.904 342.742 166.797 342.228 166.56 341.77C166.323 341.312 165.965 340.928 165.524 340.66C165.084 340.392 164.578 340.25 164.062 340.25ZM155.938 344.625C155.628 344.625 155.326 344.534 155.069 344.362C154.812 344.19 154.612 343.946 154.494 343.661C154.376 343.375 154.345 343.061 154.405 342.758C154.465 342.455 154.614 342.176 154.833 341.958C155.051 341.739 155.33 341.591 155.633 341.53C155.936 341.47 156.25 341.501 156.535 341.619C156.821 341.737 157.065 341.938 157.237 342.195C157.408 342.452 157.5 342.754 157.5 343.063C157.5 343.268 157.46 343.471 157.381 343.661C157.303 343.85 157.187 344.022 157.042 344.168C156.897 344.313 156.725 344.428 156.535 344.506C156.346 344.585 156.143 344.625 155.938 344.625ZM164.062 344.625C163.753 344.625 163.451 344.534 163.194 344.362C162.937 344.19 162.737 343.946 162.619 343.661C162.501 343.375 162.47 343.061 162.53 342.758C162.59 342.455 162.739 342.176 162.958 341.958C163.176 341.739 163.455 341.591 163.758 341.53C164.061 341.47 164.375 341.501 164.66 341.619C164.946 341.737 165.19 341.938 165.362 342.195C165.533 342.452 165.625 342.754 165.625 343.063C165.625 343.477 165.46 343.875 165.167 344.168C164.874 344.461 164.477 344.625 164.062 344.625Z" fill="#DBDBDB"/>
<path d="M146.567 127.933L117.229 98.6012C125.732 88.3924 129.973 75.2984 129.068 62.043C128.163 48.7876 122.182 36.3914 112.37 27.4331C102.558 18.4748 89.6704 13.6441 76.3876 13.946C63.1047 14.2478 50.4496 19.659 41.0548 29.0538C31.66 38.4486 26.2488 51.1037 25.9469 64.3866C25.6451 77.6694 30.4757 90.5573 39.434 100.369C48.3923 110.181 60.7886 116.162 74.044 117.067C87.2994 117.972 100.393 113.731 110.602 105.228L139.934 134.566C140.37 135.002 140.887 135.347 141.456 135.583C142.025 135.818 142.635 135.94 143.251 135.94C143.867 135.94 144.476 135.818 145.045 135.583C145.614 135.347 146.132 135.002 146.567 134.566C147.003 134.131 147.348 133.613 147.584 133.044C147.819 132.475 147.941 131.866 147.941 131.25C147.941 130.634 147.819 130.024 147.584 129.455C147.348 128.886 147.003 128.369 146.567 127.933ZM35.4381 65.6246C35.4381 57.2807 37.9124 49.1242 42.548 42.1865C47.1836 35.2488 53.7724 29.8415 61.4811 26.6485C69.1899 23.4554 77.6724 22.6199 85.856 24.2477C94.0396 25.8756 101.557 29.8935 107.457 35.7936C113.357 41.6936 117.375 49.2107 119.002 57.3943C120.63 65.5778 119.795 74.0603 116.602 81.7691C113.409 89.4778 108.001 96.0666 101.064 100.702C94.126 105.338 85.9695 107.812 77.6256 107.812C66.4406 107.8 55.7172 103.351 47.8082 95.442C39.8992 87.533 35.4505 76.8096 35.4381 65.6246Z" fill="url(#paint38_linear_9542_78807)"/>
<defs>
<linearGradient id="paint0_linear_9542_78807" x1="0" y1="56.5" x2="200" y2="56.5" gradientUnits="userSpaceOnUse">
<stop stop-color="#D4D4D4"/>
<stop offset="0.9999" stop-color="white"/>
</linearGradient>
<linearGradient id="paint1_linear_9542_78807" x1="0" y1="65.5" x2="200" y2="65.5" gradientUnits="userSpaceOnUse">
<stop stop-color="#D4D4D4"/>
<stop offset="0.9999" stop-color="white"/>
</linearGradient>
<linearGradient id="paint2_linear_9542_78807" x1="0" y1="74.5" x2="200" y2="74.5" gradientUnits="userSpaceOnUse">
<stop stop-color="#D4D4D4"/>
<stop offset="0.9999" stop-color="white"/>
</linearGradient>
<linearGradient id="paint3_linear_9542_78807" x1="0" y1="83.5" x2="200" y2="83.5" gradientUnits="userSpaceOnUse">
<stop stop-color="#D4D4D4"/>
<stop offset="0.9999" stop-color="white"/>
</linearGradient>
<linearGradient id="paint4_linear_9542_78807" x1="0" y1="92.5" x2="200" y2="92.5" gradientUnits="userSpaceOnUse">
<stop stop-color="#D4D4D4"/>
<stop offset="0.9999" stop-color="white"/>
</linearGradient>
<linearGradient id="paint5_linear_9542_78807" x1="0" y1="101.5" x2="200" y2="101.5" gradientUnits="userSpaceOnUse">
<stop stop-color="#D4D4D4"/>
<stop offset="0.9999" stop-color="white"/>
</linearGradient>
<linearGradient id="paint6_linear_9542_78807" x1="0" y1="110.5" x2="200" y2="110.5" gradientUnits="userSpaceOnUse">
<stop stop-color="#D4D4D4"/>
<stop offset="0.9999" stop-color="white"/>
</linearGradient>
<linearGradient id="paint7_linear_9542_78807" x1="0" y1="119.5" x2="200" y2="119.5" gradientUnits="userSpaceOnUse">
<stop stop-color="#D4D4D4"/>
<stop offset="0.9999" stop-color="white"/>
</linearGradient>
<linearGradient id="paint8_linear_9542_78807" x1="0" y1="128.5" x2="200" y2="128.5" gradientUnits="userSpaceOnUse">
<stop stop-color="#D4D4D4"/>
<stop offset="0.9999" stop-color="white"/>
</linearGradient>
<linearGradient id="paint9_linear_9542_78807" x1="0" y1="137.5" x2="200" y2="137.5" gradientUnits="userSpaceOnUse">
<stop stop-color="#D4D4D4"/>
<stop offset="0.9999" stop-color="white"/>
</linearGradient>
<linearGradient id="paint10_linear_9542_78807" x1="0" y1="146.5" x2="200" y2="146.5" gradientUnits="userSpaceOnUse">
<stop stop-color="#D4D4D4"/>
<stop offset="0.9999" stop-color="white"/>
</linearGradient>
<linearGradient id="paint11_linear_9542_78807" x1="0" y1="155.5" x2="200" y2="155.5" gradientUnits="userSpaceOnUse">
<stop stop-color="#D4D4D4"/>
<stop offset="0.9999" stop-color="white"/>
</linearGradient>
<linearGradient id="paint12_linear_9542_78807" x1="0" y1="164.5" x2="200" y2="164.5" gradientUnits="userSpaceOnUse">
<stop stop-color="#D4D4D4"/>
<stop offset="0.9999" stop-color="white"/>
</linearGradient>
<linearGradient id="paint13_linear_9542_78807" x1="0" y1="173.5" x2="200" y2="173.5" gradientUnits="userSpaceOnUse">
<stop stop-color="#D4D4D4"/>
<stop offset="0.9999" stop-color="white"/>
</linearGradient>
<linearGradient id="paint14_linear_9542_78807" x1="0" y1="182.5" x2="200" y2="182.5" gradientUnits="userSpaceOnUse">
<stop stop-color="#D4D4D4"/>
<stop offset="0.9999" stop-color="white"/>
</linearGradient>
<linearGradient id="paint15_linear_9542_78807" x1="0" y1="191.5" x2="200" y2="191.5" gradientUnits="userSpaceOnUse">
<stop stop-color="#D4D4D4"/>
<stop offset="0.9999" stop-color="white"/>
</linearGradient>
<linearGradient id="paint16_linear_9542_78807" x1="0" y1="200.5" x2="200" y2="200.5" gradientUnits="userSpaceOnUse">
<stop stop-color="#D4D4D4"/>
<stop offset="0.9999" stop-color="white"/>
</linearGradient>
<linearGradient id="paint17_linear_9542_78807" x1="0" y1="209.5" x2="200" y2="209.5" gradientUnits="userSpaceOnUse">
<stop stop-color="#D4D4D4"/>
<stop offset="0.9999" stop-color="white"/>
</linearGradient>
<linearGradient id="paint18_linear_9542_78807" x1="0" y1="218.5" x2="200" y2="218.5" gradientUnits="userSpaceOnUse">
<stop stop-color="#D4D4D4"/>
<stop offset="0.9999" stop-color="white"/>
</linearGradient>
<linearGradient id="paint19_linear_9542_78807" x1="0" y1="227.5" x2="200" y2="227.5" gradientUnits="userSpaceOnUse">
<stop stop-color="#D4D4D4"/>
<stop offset="0.9999" stop-color="white"/>
</linearGradient>
<linearGradient id="paint20_linear_9542_78807" x1="0" y1="236.5" x2="200" y2="236.5" gradientUnits="userSpaceOnUse">
<stop stop-color="#D4D4D4"/>
<stop offset="0.9999" stop-color="white"/>
</linearGradient>
<linearGradient id="paint21_linear_9542_78807" x1="0" y1="245.5" x2="200" y2="245.5" gradientUnits="userSpaceOnUse">
<stop stop-color="#D4D4D4"/>
<stop offset="0.9999" stop-color="white"/>
</linearGradient>
<linearGradient id="paint22_linear_9542_78807" x1="0" y1="254.5" x2="200" y2="254.5" gradientUnits="userSpaceOnUse">
<stop stop-color="#D4D4D4"/>
<stop offset="0.9999" stop-color="white"/>
</linearGradient>
<linearGradient id="paint23_linear_9542_78807" x1="0" y1="263.5" x2="200" y2="263.5" gradientUnits="userSpaceOnUse">
<stop stop-color="#D4D4D4"/>
<stop offset="0.9999" stop-color="white"/>
</linearGradient>
<linearGradient id="paint24_linear_9542_78807" x1="0" y1="272.5" x2="200" y2="272.5" gradientUnits="userSpaceOnUse">
<stop stop-color="#D4D4D4"/>
<stop offset="0.9999" stop-color="white"/>
</linearGradient>
<linearGradient id="paint25_linear_9542_78807" x1="0" y1="281.5" x2="200" y2="281.5" gradientUnits="userSpaceOnUse">
<stop stop-color="#D4D4D4"/>
<stop offset="0.9999" stop-color="white"/>
</linearGradient>
<linearGradient id="paint26_linear_9542_78807" x1="0" y1="290.5" x2="200" y2="290.5" gradientUnits="userSpaceOnUse">
<stop stop-color="#D4D4D4"/>
<stop offset="0.9999" stop-color="white"/>
</linearGradient>
<linearGradient id="paint27_linear_9542_78807" x1="0" y1="299.5" x2="200" y2="299.5" gradientUnits="userSpaceOnUse">
<stop stop-color="#D4D4D4"/>
<stop offset="0.9999" stop-color="white"/>
</linearGradient>
<linearGradient id="paint28_linear_9542_78807" x1="0" y1="308.5" x2="200" y2="308.5" gradientUnits="userSpaceOnUse">
<stop stop-color="#D4D4D4"/>
<stop offset="0.9999" stop-color="white"/>
</linearGradient>
<linearGradient id="paint29_linear_9542_78807" x1="0" y1="317.5" x2="200" y2="317.5" gradientUnits="userSpaceOnUse">
<stop stop-color="#D4D4D4"/>
<stop offset="0.9999" stop-color="white"/>
</linearGradient>
<linearGradient id="paint30_linear_9542_78807" x1="0" y1="326.5" x2="200" y2="326.5" gradientUnits="userSpaceOnUse">
<stop stop-color="#D4D4D4"/>
<stop offset="0.9999" stop-color="white"/>
</linearGradient>
<linearGradient id="paint31_linear_9542_78807" x1="0" y1="335.5" x2="200" y2="335.5" gradientUnits="userSpaceOnUse">
<stop stop-color="#D4D4D4"/>
<stop offset="0.9999" stop-color="white"/>
</linearGradient>
<linearGradient id="paint32_linear_9542_78807" x1="0" y1="344.5" x2="200" y2="344.5" gradientUnits="userSpaceOnUse">
<stop stop-color="#D4D4D4"/>
<stop offset="0.9999" stop-color="white"/>
</linearGradient>
<linearGradient id="paint33_linear_9542_78807" x1="0" y1="353.5" x2="200" y2="353.5" gradientUnits="userSpaceOnUse">
<stop stop-color="#D4D4D4"/>
<stop offset="0.9999" stop-color="white"/>
</linearGradient>
<linearGradient id="paint34_linear_9542_78807" x1="0" y1="362.5" x2="200" y2="362.5" gradientUnits="userSpaceOnUse">
<stop stop-color="#D4D4D4"/>
<stop offset="0.9999" stop-color="white"/>
</linearGradient>
<linearGradient id="paint35_linear_9542_78807" x1="0" y1="371.5" x2="200" y2="371.5" gradientUnits="userSpaceOnUse">
<stop stop-color="#D4D4D4"/>
<stop offset="0.9999" stop-color="white"/>
</linearGradient>
<linearGradient id="paint36_linear_9542_78807" x1="0" y1="380.5" x2="200" y2="380.5" gradientUnits="userSpaceOnUse">
<stop stop-color="#D4D4D4"/>
<stop offset="0.9999" stop-color="white"/>
</linearGradient>
<linearGradient id="paint37_linear_9542_78807" x1="0" y1="389.5" x2="200" y2="389.5" gradientUnits="userSpaceOnUse">
<stop stop-color="#D4D4D4"/>
<stop offset="0.9999" stop-color="white"/>
</linearGradient>
<linearGradient id="paint38_linear_9542_78807" x1="-19.5" y1="25.4998" x2="199.5" y2="136.5" gradientUnits="userSpaceOnUse">
<stop stop-color="#112A5C"/>
<stop offset="1" stop-color="white"/>
</linearGradient>
</defs>
</svg>
