<svg width="299" height="299" viewBox="0 0 299 299" fill="none" xmlns="http://www.w3.org/2000/svg">
<path d="M215.592 58.0983L121.912 57.3871C120.309 57.3749 118.746 57.8829 117.457 58.8347L42.0863 114.474C40.8357 115.397 39.9073 116.69 39.4326 118.171C38.9579 119.651 38.961 121.243 39.4415 122.721L62.3281 193.159C62.9351 195.027 64.2593 196.578 66.0095 197.469C67.7596 198.361 69.7924 198.521 71.6605 197.914C73.5286 197.307 75.0791 195.983 75.9709 194.233C76.8626 192.482 77.0226 190.45 76.4156 188.582L56.7045 127.917L89.4808 128.16C85.7478 143.408 88.2185 159.514 96.3502 172.942C104.482 186.369 117.61 196.021 132.852 199.778C119.023 211.144 108.976 226.839 103.952 245.467C103.682 246.411 103.603 247.399 103.719 248.374C103.835 249.348 104.143 250.29 104.626 251.145C105.109 251.999 105.757 252.749 106.532 253.351C107.307 253.953 108.195 254.395 109.142 254.651C110.09 254.906 111.079 254.971 112.052 254.842C113.025 254.712 113.962 254.39 114.81 253.895C115.657 253.4 116.398 252.741 116.988 251.958C117.579 251.174 118.008 250.28 118.25 249.329C124.905 224.661 142.069 206.186 165.34 198.625C188.611 191.064 213.357 195.922 233.24 211.967C234.772 213.167 236.714 213.715 238.648 213.494C240.581 213.273 242.35 212.3 243.571 210.785C244.793 209.271 245.369 207.336 245.176 205.4C244.982 203.463 244.035 201.681 242.538 200.438C227.523 188.321 210.117 181.546 192.301 180.462C202.412 168.468 207.354 152.954 206.043 137.322C204.732 121.689 197.275 107.215 185.308 97.0727L219.949 71.5079C221.2 70.5848 222.129 69.2914 222.604 67.811C223.079 66.3306 223.076 64.7383 222.595 63.2597C222.115 61.7811 221.181 60.4912 219.927 59.5727C218.672 58.6542 217.161 58.1538 215.606 58.1423L215.592 58.0983ZM189.294 128.543C191.466 135.224 192.024 142.325 190.921 149.263C189.819 156.201 187.086 162.779 182.949 168.457C178.812 174.135 173.387 178.751 167.12 181.926C160.854 185.102 153.923 186.746 146.898 186.724C139.873 186.703 132.952 185.016 126.705 181.802C120.458 178.588 115.062 173.938 110.96 168.235C106.858 162.532 104.166 155.937 103.106 148.992C102.046 142.047 102.648 134.95 104.862 128.283L140.097 128.515C141.7 128.527 143.263 128.019 144.553 127.068L172.922 106.169C180.631 111.685 186.369 119.527 189.294 128.543Z" fill="url(#paint0_linear_12770_88690)"/>
<defs>
<linearGradient id="paint0_linear_12770_88690" x1="50" y1="109.5" x2="220" y2="239" gradientUnits="userSpaceOnUse">
<stop stop-color="#B8E5FB"/>
<stop offset="1" stop-color="white"/>
</linearGradient>
</defs>
</svg>
