<svg width="194" height="194" viewBox="0 0 194 194" fill="none" xmlns="http://www.w3.org/2000/svg">
<path d="M155.94 65.0094L133.63 105.417C138.429 112.073 143.1 124.185 135.982 142.779C135.485 144.085 134.713 145.269 133.717 146.249C132.722 147.229 131.526 147.983 130.212 148.458C129.99 148.522 129.773 148.584 129.55 148.648C128.319 149.002 127.03 149.109 125.757 148.964C124.484 148.819 123.252 148.424 122.132 147.802L85.748 127.61L67.9421 159.759C67.315 160.891 66.264 161.727 65.0205 162.083C63.7769 162.44 62.4427 162.288 61.3112 161.661C60.1798 161.034 59.3438 159.983 58.9872 158.739C58.6307 157.495 58.7827 156.161 59.4098 155.03L77.2383 122.893L40.8329 102.713C39.6359 102.049 38.5923 101.14 37.77 100.045C36.9477 98.9505 36.3651 97.695 36.0601 96.3604C35.7551 95.0258 35.7347 93.6419 36 92.2988C36.2654 90.9557 36.8106 89.6836 37.6002 88.5652C49.0454 72.2814 63.9741 70.5554 70.7735 70.723L93.1358 30.2115C93.7565 29.0914 94.5918 28.1046 95.5939 27.3073C96.5961 26.5101 97.7455 25.9181 98.9764 25.5651C100.207 25.2122 101.496 25.1051 102.768 25.2502C104.041 25.3952 105.272 25.7895 106.392 26.4104L152.134 51.761C154.395 53.0139 156.066 55.1132 156.779 57.5975C157.493 60.0818 157.191 62.7478 155.94 65.0094Z" fill="url(#paint0_linear_10350_78629)"/>
<defs>
<linearGradient id="paint0_linear_10350_78629" x1="165.5" y1="49.4995" x2="33.7304" y2="148.805" gradientUnits="userSpaceOnUse">
<stop stop-color="#5DD2B0"/>
<stop offset="1" stop-color="white"/>
</linearGradient>
</defs>
</svg>
