<svg width="291" height="285" viewBox="0 0 291 285" fill="none" xmlns="http://www.w3.org/2000/svg">
<path d="M290.859 7.1875V74.8437C290.859 76.6381 290.13 78.359 288.832 79.6278C287.534 80.8966 285.773 81.6094 283.938 81.6094C282.102 81.6094 280.341 80.8966 279.043 79.6278C277.745 78.359 277.016 76.6381 277.016 74.8437V13.9531L214.719 13.9531C212.883 13.9531 211.122 13.2403 209.824 11.9715C208.526 10.7027 207.797 8.98186 207.797 7.1875C207.797 5.39314 208.526 3.67228 209.824 2.40348C211.122 1.13468 212.883 0.421875 214.719 0.421875L283.938 0.421875C285.773 0.421875 287.534 1.13468 288.832 2.40348C290.13 3.67228 290.859 5.39314 290.859 7.1875ZM76.2813 271.047H13.9844L13.9844 210.156C13.9844 208.362 13.2551 206.641 11.957 205.372C10.6589 204.103 8.8983 203.391 7.0625 203.391C5.2267 203.391 3.4661 204.103 2.168 205.372C0.869893 206.641 0.140625 208.362 0.140625 210.156L0.140625 277.812C0.140625 279.607 0.869893 281.328 2.168 282.597C3.4661 283.865 5.2267 284.578 7.0625 284.578H76.2813C78.117 284.578 79.8777 283.865 81.1758 282.597C82.4739 281.328 83.2031 279.607 83.2031 277.812C83.2031 276.018 82.4739 274.297 81.1758 273.028C79.8777 271.76 78.117 271.047 76.2813 271.047ZM283.938 203.391C282.102 203.391 280.341 204.103 279.043 205.372C277.745 206.641 277.016 208.362 277.016 210.156V271.047H214.719C212.883 271.047 211.122 271.76 209.824 273.028C208.526 274.297 207.797 276.018 207.797 277.812C207.797 279.607 208.526 281.328 209.824 282.597C211.122 283.865 212.883 284.578 214.719 284.578H283.938C285.773 284.578 287.534 283.865 288.832 282.597C290.13 281.328 290.859 279.607 290.859 277.812V210.156C290.859 208.362 290.13 206.641 288.832 205.372C287.534 204.103 285.773 203.391 283.938 203.391ZM76.2812 0.421875L7.0625 0.421875C5.2267 0.421875 3.4661 1.13468 2.168 2.40348C0.869893 3.67228 0.140625 5.39314 0.140625 7.1875L0.140625 74.8438C0.140625 76.6381 0.869893 78.359 2.168 79.6278C3.4661 80.8966 5.2267 81.6094 7.0625 81.6094C8.8983 81.6094 10.6589 80.8966 11.957 79.6278C13.2551 78.359 13.9844 76.6381 13.9844 74.8438L13.9844 13.9531L76.2812 13.9531C78.117 13.9531 79.8777 13.2403 81.1758 11.9715C82.4739 10.7027 83.2031 8.98186 83.2031 7.1875C83.2031 5.39314 82.4739 3.67228 81.1758 2.40348C79.8777 1.13468 78.117 0.421875 76.2812 0.421875Z" fill="url(#paint0_linear_13641_92994)"/>
<defs>
<linearGradient id="paint0_linear_13641_92994" x1="276.818" y1="38.8893" x2="-644.923" y2="1619.82" gradientUnits="userSpaceOnUse">
<stop stop-color="white"/>
<stop offset="0.276192" stop-color="#FA4070"/>
</linearGradient>
</defs>
</svg>
