<svg width="296" height="296" viewBox="0 0 296 296" fill="none" xmlns="http://www.w3.org/2000/svg">
<path d="M182.017 48.8446L52.5712 103.791C47.4215 105.977 43.3511 110.119 41.2554 115.306C39.1597 120.493 39.2104 126.3 41.3963 131.45L79.8589 222.062C82.0448 227.212 86.1869 231.282 91.3739 233.378C96.561 235.474 102.368 235.423 107.518 233.237L165.768 208.511L171.263 221.456L151.846 229.698C150.13 230.426 148.773 231.807 148.074 233.536C147.376 235.265 147.393 237.201 148.121 238.917C148.85 240.634 150.231 241.991 151.96 242.689C153.689 243.388 155.624 243.371 157.341 242.642L209.119 220.664C210.836 219.935 212.193 218.554 212.891 216.825C213.59 215.096 213.573 213.161 212.844 211.444C212.116 209.728 210.735 208.371 209.006 207.672C207.277 206.974 205.341 206.991 203.625 207.719L184.208 215.961L178.713 203.017L236.964 178.291C242.113 176.105 246.184 171.963 248.28 166.776C250.375 161.589 250.325 155.781 248.139 150.632L209.676 60.0196C207.49 54.8699 203.348 50.7995 198.161 48.7038C192.974 46.6081 187.167 46.6587 182.017 48.8446ZM231.469 165.346L102.023 220.293C100.307 221.021 98.3708 221.038 96.6418 220.34C94.9128 219.641 93.5321 218.284 92.8035 216.568L87.3088 203.623L229.699 143.182L235.194 156.126C235.923 157.843 235.94 159.779 235.241 161.508C234.542 163.237 233.186 164.617 231.469 165.346Z" fill="url(#paint0_linear_12750_88196)"/>
<defs>
<linearGradient id="paint0_linear_12750_88196" x1="114" y1="200.5" x2="267" y2="-14" gradientUnits="userSpaceOnUse">
<stop stop-color="#4B7599"/>
<stop offset="1" stop-color="white"/>
</linearGradient>
</defs>
</svg>
