<svg width="200" height="200" viewBox="0 0 200 200" fill="none" xmlns="http://www.w3.org/2000/svg">
<path d="M191.491 47.4062C185.515 37.1016 169.733 34.7812 145.788 40.6406C134.043 31.594 119.881 26.2311 105.09 25.2291C90.2989 24.2272 75.5426 27.6313 62.6852 35.0114C49.8277 42.3915 39.4458 53.4165 32.8509 66.6938C26.256 79.9711 23.7439 94.9051 25.6319 109.609C3.97568 132.031 4.28818 145.312 8.51474 152.594C12.4991 159.5 20.8116 162.5 31.7491 162.5C39.343 162.343 46.8922 161.294 54.2413 159.375C65.9848 168.414 80.1429 173.772 94.9285 174.771C109.714 175.771 124.465 172.368 137.318 164.992C150.171 157.616 160.551 146.597 167.148 133.327C173.744 120.056 176.262 105.129 174.382 90.4297C184.155 80.2734 190.655 70.625 192.866 62.3672C194.398 56.6484 193.937 51.6172 191.491 47.4062ZM180.796 59.125C176.023 76.9219 142.788 103.898 112.421 121.344C59.4444 151.812 23.6554 153.781 19.3272 146.344C18.1866 144.383 18.8194 140.687 21.0616 136.187C23.2824 131.975 25.9769 128.03 29.0929 124.43C30.4127 128.248 32.0405 131.953 33.9601 135.508C34.2527 136.067 34.7079 136.525 35.2657 136.821C35.8235 137.116 36.4578 137.236 37.0851 137.164C41.5548 136.613 45.9799 135.746 50.3272 134.57C66.9132 130.234 86.7569 121.695 106.202 110.523C125.648 99.3516 142.921 86.5703 154.991 74.4687C158.167 71.3271 161.12 67.9673 163.827 64.4141C164.203 63.9076 164.417 63.2993 164.441 62.669C164.464 62.0387 164.297 61.4161 163.96 60.8828C161.855 57.453 159.477 54.1978 156.851 51.1484C167.952 49.3125 178.234 49.4531 180.679 53.6797C181.398 54.9062 181.437 56.7422 180.796 59.1328V59.125Z" fill="url(#paint0_linear_10350_78397)"/>
<defs>
<linearGradient id="paint0_linear_10350_78397" x1="-117" y1="262" x2="190.533" y2="28.1132" gradientUnits="userSpaceOnUse">
<stop offset="0.035" stop-color="#FFCC25"/>
<stop offset="1" stop-color="white"/>
</linearGradient>
</defs>
</svg>
