<svg width="829" height="532" viewBox="0 0 829 532" fill="none" xmlns="http://www.w3.org/2000/svg">
<path d="M718.525 528.096C705.615 528.096 691.465 527.608 676.076 526.633C596.476 521.58 493.37 504.011 385.751 477.166C278.132 450.32 178.857 417.402 106.214 384.479C70.828 368.44 43.6692 353.258 25.4932 339.354C6.24949 324.635 -2.16797 311.804 0.473635 301.221C5.62068 280.602 51.1957 276.091 88.5222 275.938L88.5349 278.937C37.2758 279.147 7.0355 287.319 3.38429 301.947C-1.26675 320.578 36.6651 349.663 107.453 381.748C179.936 414.599 279.028 447.453 386.477 474.257C493.926 501.06 596.842 518.598 676.266 523.64C753.831 528.565 800.987 520.704 805.638 502.073C809.499 486.604 784.044 463.817 733.961 437.907L735.34 435.245C771.73 454.071 813.971 481.073 808.549 502.799C805.906 513.383 792.446 520.755 768.54 524.711C754.913 526.965 738.176 528.096 718.525 528.096Z" fill="#F3F5F8"/>
<path d="M225.957 532C190.364 532.001 157.274 530.78 127.652 528.316C88.932 525.095 58.2494 519.917 36.4573 512.928C13.3847 505.526 1.14416 496.269 0.0754932 485.413C-2.00714 464.266 39.4026 444.71 74.5077 432.028L75.5271 434.848C27.3188 452.263 1.58309 470.117 3.06034 485.121C4.94183 504.23 50.4441 518.885 127.9 525.328C207.211 531.925 311.585 529.587 421.796 518.741C532.006 507.898 634.834 489.85 711.336 467.921C786.049 446.506 827.821 423.264 825.939 404.155C824.377 388.289 792.742 375.377 736.863 367.795L737.266 364.824C777.869 370.332 826.73 381.577 828.924 403.861C829.993 414.717 819.792 426.182 798.606 437.938C778.595 449.041 749.512 460.099 712.163 470.804C635.492 492.781 532.475 510.864 422.09 521.726C352.843 528.539 285.869 532 225.957 532Z" fill="#F3F5F8"/>
</svg>
