<svg width="554" height="453" viewBox="0 0 554 453" fill="none" xmlns="http://www.w3.org/2000/svg">
<rect x="0.527344" y="257.065" width="50" height="70" rx="4" transform="rotate(-28 0.527344 257.065)" fill="url(#paint0_linear_12763_88589)"/>
<rect x="13.168" y="261.67" width="19" height="14" rx="2" transform="rotate(-28 13.168 261.67)" fill="white"/>
<rect x="21.6191" y="277.562" width="19" height="14" rx="2" transform="rotate(-28 21.6191 277.562)" fill="white"/>
<rect x="30.0703" y="293.456" width="19" height="14" rx="2" transform="rotate(-28 30.0703 293.456)" fill="white"/>
<rect x="202.443" y="380.67" width="50" height="44.8799" rx="4" transform="rotate(-18 202.443 380.67)" fill="url(#paint1_linear_12763_88589)"/>
<rect x="210.316" y="388.031" width="11.5322" height="26.8607" rx="2" transform="rotate(-18 210.316 388.031)" fill="white"/>
<rect x="236.482" y="378.74" width="11.5322" height="26.764" rx="2" transform="rotate(-18 236.482 378.74)" fill="white"/>
<rect x="223.396" y="383.513" width="11.5322" height="26.6792" rx="2" transform="rotate(-18 223.396 383.513)" fill="white"/>
<rect x="114.623" y="288.004" width="50" height="70" rx="4" transform="rotate(-24 114.623 288.004)" fill="url(#paint2_linear_12763_88589)"/>
<rect x="123.258" y="295.105" width="40" height="22.2525" rx="2" transform="rotate(-24 123.258 295.105)" fill="white"/>
<rect x="439.793" y="170.254" width="50" height="70" rx="4" transform="rotate(29 439.793 170.254)" fill="url(#paint3_linear_12763_88589)"/>
<path d="M450.249 240.12L437.503 236.942C437.804 236.595 438.108 236.237 438.414 235.872C439.52 236.281 441.05 235.822 442.994 234.507C443.119 235.622 443.505 237.125 444.722 237.454C445.405 237.639 446.193 237.402 447.11 236.731C447.471 237.475 448.376 238.365 450.551 238.907C450.712 238.947 450.882 238.922 451.024 238.837C451.166 238.751 451.269 238.613 451.309 238.452C451.349 238.291 451.324 238.121 451.238 237.979C451.153 237.837 451.014 237.734 450.854 237.694C448.547 237.119 448.062 236.157 448.126 235.717C448.165 235.589 448.16 235.451 448.112 235.326C448.063 235.2 447.974 235.095 447.859 235.026C447.739 234.955 447.598 234.925 447.46 234.942C447.321 234.958 447.192 235.019 447.091 235.116C445.826 236.293 445.236 236.299 445.045 236.246C444.422 236.078 444.151 234.451 444.195 233.343C444.2 233.225 444.171 233.107 444.111 233.004C444.052 232.902 443.964 232.818 443.859 232.763C443.753 232.708 443.635 232.685 443.516 232.695C443.398 232.706 443.285 232.749 443.191 232.822C441.181 234.361 439.993 234.751 439.312 234.76C440.312 233.49 441.106 232.353 441.678 231.373C442.638 229.725 442.985 228.492 442.739 227.603C442.613 227.139 442.254 226.532 441.29 226.292C440.072 225.988 438.825 226.9 437.867 228.792C437.298 229.915 436.922 231.23 436.837 232.4C436.751 233.57 436.951 234.486 437.415 235.116C436.986 235.631 436.556 236.13 436.14 236.602L434.482 236.189C434.321 236.149 434.151 236.174 434.008 236.26C433.866 236.345 433.764 236.483 433.724 236.644C433.684 236.805 433.709 236.975 433.795 237.117C433.88 237.259 434.018 237.362 434.179 237.402L435.196 237.655C433.941 239.033 432.997 239.977 432.982 239.992C432.921 240.05 432.873 240.119 432.84 240.195C432.807 240.271 432.789 240.354 432.788 240.437C432.787 240.52 432.803 240.603 432.834 240.68C432.866 240.757 432.912 240.827 432.971 240.886C433.03 240.945 433.1 240.992 433.177 241.023C433.254 241.054 433.337 241.07 433.42 241.069C433.504 241.068 433.586 241.051 433.662 241.017C433.739 240.984 433.808 240.936 433.865 240.876C433.882 240.859 435.075 239.665 436.572 237.998L449.946 241.333C450.107 241.373 450.277 241.348 450.42 241.262C450.562 241.177 450.664 241.039 450.704 240.878C450.744 240.717 450.719 240.547 450.633 240.405C450.548 240.263 450.41 240.16 450.249 240.12ZM438.982 229.357C439.614 228.108 440.42 227.363 440.987 227.505C441.391 227.606 441.49 227.78 441.534 227.937C441.661 228.397 441.571 229.894 438.26 234.076C437.847 233.065 438.121 231.057 438.982 229.357Z" fill="white"/>
<rect x="434.471" y="190.17" width="40" height="3" rx="1" transform="rotate(29 434.471 190.17)" fill="white"/>
<rect x="431.646" y="196.125" width="33.5855" height="3" rx="1" transform="rotate(29 431.646 196.125)" fill="white"/>
<rect x="428.443" y="201.578" width="27.7489" height="3" rx="1" transform="rotate(29 428.443 201.578)" fill="white"/>
<rect x="425.238" y="207.031" width="36.2851" height="3" rx="1" transform="rotate(29 425.238 207.031)" fill="white"/>
<circle cx="445.228" cy="185.722" r="5" transform="rotate(12 445.228 185.722)" fill="white"/>
<rect x="348.02" y="315.348" width="50" height="70" rx="4" transform="rotate(25 348.02 315.348)" fill="url(#paint4_linear_12763_88589)"/>
<path d="M330.5 360.895C333.215 359.786 337.073 357.814 338.293 361.108C338.937 362.693 339.495 366.138 341.994 365.222L361.48 358.13C361.846 358 362.233 357.944 362.621 357.965C363.008 357.987 363.387 358.086 363.736 358.256C364.084 358.426 364.395 358.664 364.651 358.957C364.906 359.249 365.1 359.589 365.222 359.957L370.74 377.022C369.823 377.929 368.831 378.758 367.775 379.498L330.573 362.15L330.5 360.895Z" fill="white"/>
<rect x="255.217" y="115.127" width="50" height="70" rx="4" fill="url(#paint5_linear_12763_88589)"/>
<path d="M283.732 126.104C282.655 126.104 281.622 126.532 280.86 127.293C280.098 128.055 279.67 129.089 279.67 130.166C279.67 131.243 280.098 132.277 280.86 133.039C281.622 133.801 282.655 134.229 283.732 134.229C284.573 134.229 285.455 133.975 286.093 133.552C286.127 133.529 286.157 133.5 286.179 133.466C286.202 133.431 286.218 133.393 286.226 133.353C286.234 133.313 286.235 133.271 286.227 133.231C286.219 133.191 286.203 133.152 286.18 133.118C286.158 133.084 286.128 133.055 286.094 133.032C286.06 133.009 286.022 132.993 285.982 132.985C285.941 132.977 285.9 132.977 285.86 132.984C285.819 132.992 285.781 133.008 285.747 133.031C285.217 133.384 284.444 133.604 283.732 133.604C283.053 133.604 282.388 133.402 281.823 133.024C281.257 132.646 280.817 132.11 280.557 131.481C280.296 130.853 280.228 130.162 280.361 129.495C280.494 128.829 280.821 128.216 281.302 127.735C281.782 127.255 282.395 126.927 283.062 126.795C283.729 126.662 284.42 126.73 285.048 126.99C285.676 127.25 286.213 127.691 286.591 128.256C286.968 128.822 287.17 129.486 287.17 130.166C287.17 131.199 286.745 131.416 286.389 131.416C286.032 131.416 285.607 131.199 285.607 130.166L285.607 128.604C285.607 128.521 285.574 128.441 285.516 128.383C285.457 128.324 285.378 128.291 285.295 128.291C285.212 128.291 285.133 128.324 285.074 128.383C285.015 128.441 284.982 128.521 284.982 128.604L284.982 128.77C284.702 128.518 284.352 128.357 283.979 128.307C283.606 128.258 283.226 128.321 282.889 128.49C282.553 128.659 282.275 128.926 282.092 129.255C281.909 129.584 281.829 129.961 281.863 130.336C281.898 130.711 282.044 131.067 282.283 131.358C282.523 131.649 282.844 131.861 283.206 131.966C283.568 132.071 283.953 132.066 284.311 131.949C284.669 131.833 284.984 131.611 285.214 131.313C285.448 131.782 285.853 132.041 286.389 132.041C287.269 132.041 287.795 131.34 287.795 130.166C287.794 129.089 287.365 128.056 286.604 127.295C285.842 126.533 284.81 126.105 283.732 126.104ZM283.732 131.416C283.485 131.416 283.244 131.343 283.038 131.205C282.832 131.068 282.672 130.873 282.578 130.644C282.483 130.416 282.458 130.165 282.506 129.922C282.555 129.68 282.674 129.457 282.849 129.282C283.023 129.107 283.246 128.988 283.489 128.94C283.731 128.892 283.982 128.917 284.211 129.011C284.439 129.106 284.634 129.266 284.772 129.472C284.909 129.677 284.982 129.919 284.982 130.166C284.982 130.498 284.851 130.815 284.616 131.05C284.382 131.284 284.064 131.416 283.732 131.416Z" fill="white"/>
<rect x="289.32" y="128.9" width="11.0238" height="3" rx="1" fill="white"/>
<rect x="259.998" y="128.847" width="18.4078" height="3" rx="1" fill="white"/>
<rect x="259.998" y="139.045" width="18.4078" height="3" rx="1" fill="white"/>
<rect x="259.998" y="146" width="40" height="3" rx="1" fill="white"/>
<rect x="259.998" y="151" width="40" height="3" rx="1" fill="white"/>
<rect x="259.998" y="156" width="40" height="3" rx="1" fill="white"/>
<rect x="259.998" y="161" width="40" height="3" rx="1" fill="white"/>
<rect x="259.998" y="166" width="40" height="3" rx="1" fill="white"/>
<rect x="259.998" y="171" width="18" height="3" rx="1" fill="white"/>
<rect x="463.764" y="355.727" width="74.0039" height="70" rx="4" transform="rotate(28 463.764 355.727)" fill="url(#paint6_linear_12763_88589)"/>
<rect x="466.285" y="369.901" width="18.4078" height="3" rx="1" transform="rotate(28 466.285 369.901)" fill="white"/>
<rect x="462.285" y="376.83" width="18.4078" height="3" rx="1" transform="rotate(28 462.285 376.83)" fill="white"/>
<rect x="458.285" y="383.758" width="18.4078" height="3" rx="1" transform="rotate(28 458.285 383.758)" fill="white"/>
<rect x="454.285" y="390.686" width="18.4078" height="3" rx="1" transform="rotate(28 454.285 390.686)" fill="white"/>
<rect x="450.285" y="397.614" width="18.4078" height="3" rx="1" transform="rotate(28 450.285 397.614)" fill="white"/>
<rect x="493.883" y="379.993" width="55" height="3" rx="1" transform="rotate(118 493.883 379.993)" fill="white"/>
<path d="M513.531 396.442L511.253 396.972L510.645 399.241C510.613 399.36 510.547 399.467 510.455 399.549C510.363 399.63 510.249 399.683 510.128 399.7C510.006 399.717 509.882 399.698 509.771 399.645C509.66 399.592 509.567 399.508 509.504 399.402L508.31 397.396L505.983 397.53C505.86 397.536 505.738 397.507 505.632 397.444C505.526 397.382 505.441 397.29 505.387 397.179C505.333 397.069 505.313 396.945 505.329 396.823C505.346 396.701 505.397 396.587 505.478 396.494L507.017 394.723L506.184 392.536C506.14 392.421 506.13 392.296 506.156 392.176C506.183 392.055 506.244 391.946 506.333 391.86C506.421 391.775 506.533 391.717 506.654 391.695C506.775 391.673 506.9 391.687 507.013 391.735L509.158 392.648L510.974 391.164C511.069 391.086 511.185 391.038 511.307 391.026C511.43 391.014 511.553 391.038 511.662 391.096C511.77 391.154 511.859 391.242 511.917 391.35C511.976 391.459 512.001 391.582 511.989 391.704L511.777 394.04L513.733 395.308C513.836 395.375 513.918 395.47 513.967 395.583C514.016 395.696 514.031 395.821 514.01 395.942C513.988 396.063 513.931 396.175 513.847 396.265C513.762 396.354 513.652 396.416 513.532 396.443L513.531 396.442Z" fill="white"/>
<rect x="101.441" y="63.6709" width="50" height="44.8799" rx="4" transform="rotate(-18 101.441 63.6709)" fill="url(#paint7_linear_12763_88589)"/>
<rect x="109.516" y="69.2158" width="13.5812" height="13.0738" rx="2" transform="rotate(-18 109.516 69.2158)" fill="white"/>
<rect x="128.773" y="73.4727" width="21" height="3" rx="1" transform="rotate(-18 128.773 73.4727)" fill="white"/>
<path d="M114.459 84.4325C114.289 83.9072 114.576 83.3431 115.101 83.1724L149.339 72.0478C149.865 71.8772 150.429 72.1646 150.6 72.6899L150.909 73.6409C151.079 74.1662 150.792 74.7303 150.267 74.901L116.028 86.0256C115.503 86.1963 114.939 85.9088 114.768 85.3836L114.459 84.4325Z" fill="white"/>
<rect x="115.695" y="88.2363" width="38" height="3" rx="1" transform="rotate(-18 115.695 88.2363)" fill="white"/>
<path d="M151.893 86.114L146.789 90.2474C146.74 90.0229 146.689 89.7936 146.635 89.5616C147.131 89.243 147.409 88.4942 147.468 87.3218C147.951 87.6075 148.667 87.9055 149.165 87.5187C149.444 87.3015 149.587 86.9157 149.595 86.3477C150.001 86.4273 150.628 86.3338 151.499 85.6283C151.564 85.5761 151.605 85.5005 151.614 85.4181C151.622 85.3357 151.598 85.2532 151.546 85.1888C151.494 85.1244 151.418 85.0833 151.335 85.0746C151.253 85.066 151.171 85.0904 151.106 85.1426C150.182 85.8906 149.652 85.7946 149.496 85.6368C149.456 85.5825 149.4 85.543 149.335 85.5247C149.271 85.5064 149.202 85.5103 149.14 85.5358C149.075 85.5622 149.021 85.6092 148.986 85.6695C148.95 85.7297 148.936 85.7999 148.945 85.8691C149.034 86.7287 148.858 86.9657 148.78 87.0264C148.525 87.2246 147.794 86.8433 147.365 86.4922C147.319 86.4545 147.264 86.4308 147.205 86.4236C147.146 86.4165 147.086 86.4263 147.032 86.4519C146.979 86.4775 146.934 86.5179 146.902 86.5682C146.871 86.6186 146.854 86.6769 146.855 86.7362C146.864 88.0021 146.663 88.5939 146.461 88.8682C146.255 88.0866 146.04 87.4278 145.821 86.9045C145.451 86.0252 145.064 85.5154 144.635 85.3465C144.412 85.2569 144.061 85.2178 143.675 85.5305C143.188 85.9253 143.176 86.6976 143.643 87.6497C143.921 88.2148 144.333 88.7606 144.774 89.1466C145.216 89.5327 145.641 89.7288 146.033 89.733C146.109 90.059 146.179 90.3814 146.243 90.6894L145.579 91.2272C145.514 91.2794 145.473 91.355 145.464 91.4374C145.456 91.5199 145.48 91.6024 145.532 91.6668C145.584 91.7312 145.66 91.7722 145.743 91.7809C145.825 91.7895 145.907 91.7651 145.972 91.713L146.379 91.3833C146.552 92.2991 146.644 92.9598 146.646 92.9706C146.651 93.0119 146.664 93.0519 146.684 93.0882C146.705 93.1244 146.732 93.1562 146.765 93.1817C146.798 93.2071 146.836 93.2257 146.876 93.2364C146.917 93.2471 146.959 93.2496 147 93.2438C147.041 93.238 147.081 93.224 147.116 93.2027C147.152 93.1813 147.183 93.153 147.208 93.1195C147.233 93.086 147.25 93.0478 147.26 93.0073C147.27 92.9668 147.271 92.9248 147.265 92.8837C147.263 92.8721 147.145 92.0362 146.93 90.9371L152.286 86.5997C152.351 86.5476 152.392 86.472 152.4 86.3895C152.409 86.3071 152.385 86.2246 152.332 86.1602C152.28 86.0958 152.205 86.0547 152.122 86.0461C152.04 86.0374 151.957 86.0619 151.893 86.114ZM144.205 87.3742C143.896 86.7461 143.841 86.2001 144.068 86.0162C144.23 85.8852 144.33 85.8982 144.405 85.9278C144.628 86.0159 145.198 86.5019 145.872 89.0828C145.344 88.9435 144.625 88.2299 144.205 87.3742Z" fill="white"/>
<rect x="125.684" y="63.9619" width="21" height="3" rx="1" transform="rotate(-18 125.684 63.9619)" fill="white"/>
<rect x="127.229" y="68.7178" width="21" height="3" rx="1" transform="rotate(-18 127.229 68.7178)" fill="white"/>
<rect x="510.684" y="0.920898" width="50" height="111.902" rx="4" transform="rotate(30 510.684 0.920898)" fill="url(#paint8_linear_12763_88589)"/>
<rect x="515.076" y="17.3135" width="18.4078" height="3" rx="1" transform="rotate(30 515.076 17.3135)" fill="white"/>
<circle cx="510.209" cy="16.0873" r="3" transform="rotate(30 510.209 16.0873)" fill="white"/>
<rect width="24" height="3" rx="1" transform="matrix(-0.866025 -0.5 -0.5 0.866025 533.092 38.1074)" fill="white"/>
<circle cx="3" cy="3" r="3" transform="matrix(-0.866026 -0.5 -0.5 0.866026 540.891 40.7295)" fill="white"/>
<rect x="506.074" y="32.9023" width="6" height="3" rx="1" transform="rotate(30 506.074 32.9023)" fill="white"/>
<circle cx="501.059" cy="31.5903" r="3" transform="rotate(30 501.059 31.5903)" fill="white"/>
<rect width="27" height="3" rx="1" transform="matrix(-0.866025 -0.5 -0.5 0.866025 524.092 53.6963)" fill="white"/>
<circle cx="3" cy="3" r="3" transform="matrix(-0.866026 -0.5 -0.5 0.866026 532.039 56.4043)" fill="white"/>
<rect x="497.076" y="48.4902" width="6" height="3" rx="1" transform="rotate(30 497.076 48.4902)" fill="white"/>
<circle cx="491.911" cy="47.0922" r="3" transform="rotate(30 491.911 47.0922)" fill="white"/>
<rect width="23" height="3" rx="1" transform="matrix(-0.866025 -0.5 -0.5 0.866025 515.957 69.7852)" fill="white"/>
<circle cx="3" cy="3" r="3" transform="matrix(-0.866026 -0.5 -0.5 0.866026 523.188 72.0791)" fill="white"/>
<rect x="488.074" y="64.0791" width="27" height="3" rx="1" transform="rotate(30 488.074 64.0791)" fill="white"/>
<circle cx="483.059" cy="62.767" r="3" transform="rotate(30 483.059 62.767)" fill="white"/>
<rect x="475.074" y="86.5957" width="27" height="3" rx="1" transform="rotate(30 475.074 86.5957)" fill="white"/>
<circle cx="470.059" cy="85.2836" r="3" transform="rotate(30 470.059 85.2836)" fill="white"/>
<rect width="6" height="3" rx="1" transform="matrix(-0.866025 -0.5 -0.5 0.866025 506.092 84.873)" fill="white"/>
<circle cx="3" cy="3" r="3" transform="matrix(-0.866026 -0.5 -0.5 0.866026 514.039 87.5811)" fill="white"/>
<rect width="6" height="3" rx="1" transform="matrix(-0.866025 -0.5 -0.5 0.866025 501.592 92.667)" fill="white"/>
<circle cx="3" cy="3" r="3" transform="matrix(-0.866026 -0.5 -0.5 0.866026 509.539 95.375)" fill="white"/>
<rect width="6" height="3" rx="1" transform="matrix(-0.866025 -0.5 -0.5 0.866025 493.592 106.523)" fill="white"/>
<circle cx="3" cy="3" r="3" transform="matrix(-0.866026 -0.5 -0.5 0.866026 501.539 109.231)" fill="white"/>
<defs>
<linearGradient id="paint0_linear_12763_88589" x1="33.9269" y1="218.687" x2="35.7636" y2="368.597" gradientUnits="userSpaceOnUse">
<stop offset="0.426058" stop-color="#FA4070"/>
<stop offset="1" stop-color="white"/>
</linearGradient>
<linearGradient id="paint1_linear_12763_88589" x1="239.728" y1="445.704" x2="251.92" y2="353.748" gradientUnits="userSpaceOnUse">
<stop stop-color="white"/>
<stop offset="0.918303" stop-color="#112A5C"/>
</linearGradient>
<linearGradient id="paint2_linear_12763_88589" x1="139.623" y1="288.004" x2="135.703" y2="411.227" gradientUnits="userSpaceOnUse">
<stop stop-color="#4CD9AA"/>
<stop offset="0.994463" stop-color="white"/>
</linearGradient>
<linearGradient id="paint3_linear_12763_88589" x1="463.502" y1="285.236" x2="477.816" y2="106.607" gradientUnits="userSpaceOnUse">
<stop stop-color="white"/>
<stop offset="1" stop-color="#00553C"/>
</linearGradient>
<linearGradient id="paint4_linear_12763_88589" x1="377.003" y1="320.232" x2="386.213" y2="432.443" gradientUnits="userSpaceOnUse">
<stop stop-color="#FFB53E"/>
<stop offset="1" stop-color="white"/>
</linearGradient>
<linearGradient id="paint5_linear_12763_88589" x1="280" y1="68.4998" x2="280" y2="233.5" gradientUnits="userSpaceOnUse">
<stop stop-color="#112A5C"/>
<stop offset="1" stop-color="white"/>
</linearGradient>
<linearGradient id="paint6_linear_12763_88589" x1="532.058" y1="271.345" x2="475.269" y2="468.473" gradientUnits="userSpaceOnUse">
<stop stop-color="#45C4FF"/>
<stop offset="1" stop-color="white"/>
</linearGradient>
<linearGradient id="paint7_linear_12763_88589" x1="117.859" y1="45.6939" x2="124.966" y2="190.476" gradientUnits="userSpaceOnUse">
<stop stop-color="#FFB53E"/>
<stop offset="1" stop-color="white"/>
</linearGradient>
<linearGradient id="paint8_linear_12763_88589" x1="554.312" y1="-11.2575" x2="528.372" y2="199.778" gradientUnits="userSpaceOnUse">
<stop stop-color="#FA4070"/>
<stop offset="1" stop-color="white"/>
</linearGradient>
</defs>
</svg>
