<svg width="194" height="231" viewBox="0 0 194 231" fill="none" xmlns="http://www.w3.org/2000/svg">
<g opacity="0.3">
<rect x="107.863" y="145" width="50" height="70" rx="4" transform="rotate(28 107.863 145)" fill="url(#paint0_linear_10499_78489)"/>
<rect x="107.584" y="156.177" width="40" height="22.2525" rx="2" transform="rotate(28 107.584 156.177)" fill="white"/>
<rect x="0.0859375" y="124.846" width="50" height="44.8799" rx="4" transform="rotate(-28 0.0859375 124.846)" fill="url(#paint1_linear_10499_78489)"/>
<rect x="9" y="128.904" width="13.5812" height="13.0738" rx="2" transform="rotate(-28 9 128.904)" fill="white"/>
<rect x="28.7051" y="129.753" width="21" height="3" rx="1" transform="rotate(-28 28.7051 129.753)" fill="white"/>
<path d="M16.5105 143.031C16.2512 142.544 16.4363 141.938 16.924 141.679L48.7101 124.778C49.1977 124.519 49.8032 124.704 50.0625 125.191L50.532 126.074C50.7913 126.562 50.6061 127.168 50.1185 127.427L18.3324 144.328C17.8447 144.587 17.2392 144.402 16.98 143.914L16.5105 143.031Z" fill="white"/>
<rect x="18.3887" y="146.563" width="38" height="3" rx="1" transform="rotate(-28 18.3887 146.563)" fill="white"/>
<path d="M54.1465 139.701L48.3473 142.784C48.343 142.555 48.3362 142.32 48.3278 142.082C48.8754 141.864 49.2905 141.182 49.573 140.042C49.9923 140.415 50.6386 140.844 51.2008 140.559C51.5166 140.399 51.7301 140.048 51.8463 139.492C52.2294 139.648 52.8632 139.675 53.8531 139.149C53.9263 139.11 53.981 139.044 54.0052 138.965C54.0295 138.885 54.0212 138.8 53.9823 138.727C53.9434 138.653 53.877 138.599 53.7978 138.574C53.7185 138.55 53.6329 138.558 53.5597 138.597C52.5101 139.155 52.0081 138.96 51.8846 138.775C51.8563 138.714 51.8083 138.665 51.7483 138.634C51.6884 138.604 51.62 138.595 51.5542 138.608C51.4857 138.622 51.4237 138.658 51.3776 138.71C51.3315 138.762 51.3039 138.828 51.2992 138.898C51.2229 139.759 51.0054 139.958 50.9167 140.003C50.6289 140.149 49.9841 139.635 49.6299 139.208C49.592 139.163 49.5418 139.129 49.4853 139.11C49.4288 139.092 49.3683 139.09 49.3108 139.105C49.2533 139.12 49.2013 139.151 49.1608 139.195C49.1203 139.238 49.093 139.292 49.0821 139.35C48.8501 140.595 48.5395 141.137 48.2893 141.368C48.2361 140.562 48.1509 139.874 48.0351 139.318C47.8405 138.385 47.5571 137.81 47.1684 137.563C46.9663 137.432 46.6299 137.327 46.1912 137.56C45.6372 137.855 45.4786 138.611 45.7557 139.634C45.92 140.242 46.2206 140.856 46.5801 141.32C46.9396 141.783 47.3201 142.057 47.7036 142.135C47.7165 142.47 47.7237 142.8 47.7272 143.114L46.9726 143.515C46.8994 143.554 46.8447 143.621 46.8204 143.7C46.7962 143.779 46.8044 143.865 46.8434 143.938C46.8823 144.011 46.9486 144.066 47.0279 144.09C47.1072 144.114 47.1928 144.106 47.266 144.067L47.7285 143.821C47.7232 144.753 47.6881 145.42 47.6877 145.43C47.6846 145.472 47.6898 145.514 47.703 145.553C47.7162 145.593 47.7371 145.629 47.7647 145.66C47.7922 145.692 47.8256 145.717 47.8631 145.735C47.9006 145.753 47.9413 145.764 47.9829 145.766C48.0245 145.768 48.0661 145.762 48.1053 145.748C48.1445 145.734 48.1805 145.712 48.2111 145.684C48.2417 145.656 48.2664 145.622 48.2837 145.584C48.3009 145.546 48.3105 145.505 48.3117 145.463C48.3121 145.451 48.3558 144.608 48.3545 143.489L54.4399 140.253C54.5131 140.214 54.5678 140.148 54.5921 140.068C54.6163 139.989 54.6081 139.903 54.5691 139.83C54.5302 139.757 54.4638 139.702 54.3846 139.678C54.3053 139.654 54.2197 139.662 54.1465 139.701ZM46.3591 139.471C46.176 138.796 46.2266 138.249 46.4846 138.112C46.6684 138.014 46.7636 138.046 46.8323 138.09C47.0335 138.218 47.5008 138.804 47.6695 141.466C47.1778 141.229 46.6081 140.391 46.3591 139.471Z" fill="white"/>
<rect x="24.0098" y="120.923" width="21" height="3" rx="1" transform="rotate(-28 24.0098 120.923)" fill="white"/>
<rect x="26.3574" y="125.338" width="21" height="3" rx="1" transform="rotate(-28 26.3574 125.338)" fill="white"/>
<rect x="145.877" y="13.8877" width="50" height="111.902" rx="4" transform="rotate(30 145.877 13.8877)" fill="url(#paint2_linear_10499_78489)"/>
<rect x="150.27" y="30.2803" width="18.4078" height="3" rx="1" transform="rotate(30 150.27 30.2803)" fill="white"/>
<circle cx="145.403" cy="29.0541" r="3" transform="rotate(30 145.403 29.0541)" fill="white"/>
<rect width="24" height="3" rx="1" transform="matrix(-0.866025 -0.5 -0.5 0.866025 168.285 51.0752)" fill="white"/>
<circle cx="3" cy="3" r="3" transform="matrix(-0.866026 -0.5 -0.5 0.866026 176.084 53.6973)" fill="white"/>
<rect x="141.268" y="45.8691" width="6" height="3" rx="1" transform="rotate(30 141.268 45.8691)" fill="white"/>
<circle cx="136.252" cy="44.5571" r="3" transform="rotate(30 136.252 44.5571)" fill="white"/>
<rect width="27" height="3" rx="1" transform="matrix(-0.866025 -0.5 -0.5 0.866025 159.285 66.6631)" fill="white"/>
<circle cx="3" cy="3" r="3" transform="matrix(-0.866026 -0.5 -0.5 0.866026 167.232 69.3711)" fill="white"/>
<rect x="132.27" y="61.458" width="6" height="3" rx="1" transform="rotate(30 132.27 61.458)" fill="white"/>
<circle cx="127.104" cy="60.06" r="3" transform="rotate(30 127.104 60.06)" fill="white"/>
<rect width="23" height="3" rx="1" transform="matrix(-0.866025 -0.5 -0.5 0.866025 151.15 82.752)" fill="white"/>
<circle cx="3" cy="3" r="3" transform="matrix(-0.866026 -0.5 -0.5 0.866026 158.381 85.0459)" fill="white"/>
<rect x="123.268" y="77.0459" width="27" height="3" rx="1" transform="rotate(30 123.268 77.0459)" fill="white"/>
<circle cx="118.252" cy="75.7338" r="3" transform="rotate(30 118.252 75.7338)" fill="white"/>
<rect x="110.268" y="99.5635" width="27" height="3" rx="1" transform="rotate(30 110.268 99.5635)" fill="white"/>
<circle cx="105.252" cy="98.2514" r="3" transform="rotate(30 105.252 98.2514)" fill="white"/>
<rect width="6" height="3" rx="1" transform="matrix(-0.866025 -0.5 -0.5 0.866025 141.285 97.8408)" fill="white"/>
<circle cx="3" cy="3" r="3" transform="matrix(-0.866026 -0.5 -0.5 0.866026 149.232 100.549)" fill="white"/>
<rect width="6" height="3" rx="1" transform="matrix(-0.866025 -0.5 -0.5 0.866025 136.785 105.635)" fill="white"/>
<circle cx="3" cy="3" r="3" transform="matrix(-0.866026 -0.5 -0.5 0.866026 144.732 108.343)" fill="white"/>
<rect width="6" height="3" rx="1" transform="matrix(-0.866025 -0.5 -0.5 0.866025 128.785 119.491)" fill="white"/>
<circle cx="3" cy="3" r="3" transform="matrix(-0.866026 -0.5 -0.5 0.866026 136.732 122.199)" fill="white"/>
</g>
<defs>
<linearGradient id="paint0_linear_10499_78489" x1="132.863" y1="145" x2="128.943" y2="268.223" gradientUnits="userSpaceOnUse">
<stop stop-color="#4CD9AA"/>
<stop offset="0.994463" stop-color="white"/>
</linearGradient>
<linearGradient id="paint1_linear_10499_78489" x1="16.5033" y1="106.869" x2="23.6109" y2="251.651" gradientUnits="userSpaceOnUse">
<stop stop-color="#FFB53E"/>
<stop offset="1" stop-color="white"/>
</linearGradient>
<linearGradient id="paint2_linear_10499_78489" x1="189.505" y1="1.70928" x2="163.565" y2="212.745" gradientUnits="userSpaceOnUse">
<stop stop-color="#FA4070"/>
<stop offset="1" stop-color="white"/>
</linearGradient>
</defs>
</svg>
