<svg width="291" height="318" viewBox="0 0 291 318" fill="none" xmlns="http://www.w3.org/2000/svg">
<path d="M267.924 103.152L103.153 49.6151C99.1803 48.3243 94.8575 48.6645 91.1356 50.5609C87.4137 52.4572 84.5976 55.7545 83.3068 59.7272L39.5037 194.539C38.2128 198.512 38.553 202.835 40.4494 206.557C42.3458 210.279 45.6431 213.095 49.6158 214.386L214.386 267.923C218.359 269.214 222.682 268.873 226.404 266.977C230.126 265.081 232.942 261.783 234.232 257.811L278.036 122.998C279.326 119.026 278.986 114.703 277.09 110.981C275.193 107.259 271.896 104.443 267.924 103.152ZM101.854 206.518L71.8954 196.784C69.9091 196.139 68.2605 194.73 67.3123 192.87C66.3641 191.009 66.194 188.847 66.8394 186.861L76.5734 156.903C77.2188 154.916 78.6269 153.268 80.4878 152.319C82.3488 151.371 84.5101 151.201 86.4965 151.846C88.4829 152.492 90.1315 153.9 91.0797 155.761C92.0279 157.622 92.198 159.783 91.5526 161.77L84.252 184.238L106.721 191.539C108.707 192.184 110.356 193.592 111.304 195.453C112.252 197.314 112.422 199.476 111.777 201.462C111.131 203.448 109.723 205.097 107.862 206.045C106.001 206.993 103.84 207.163 101.854 206.518ZM240.966 160.635C240.32 162.622 238.912 164.27 237.051 165.218C235.191 166.167 233.029 166.337 231.043 165.691C229.056 165.046 227.408 163.638 226.46 161.777C225.511 159.916 225.341 157.755 225.987 155.768L233.287 133.3L210.819 125.999C208.832 125.354 207.184 123.946 206.235 122.085C205.287 120.224 205.117 118.062 205.762 116.076C206.408 114.09 207.816 112.441 209.677 111.493C211.538 110.545 213.699 110.375 215.686 111.02L245.644 120.754C247.63 121.399 249.279 122.807 250.227 124.668C251.175 126.529 251.345 128.691 250.7 130.677L240.966 160.635Z" fill="url(#paint0_linear_10110_78453)"/>
<defs>
<linearGradient id="paint0_linear_10110_78453" x1="185.538" y1="76.3837" x2="90.837" y2="275.705" gradientUnits="userSpaceOnUse">
<stop stop-color="#DEF5E8"/>
<stop offset="1" stop-color="white"/>
</linearGradient>
</defs>
</svg>
