<svg width="340" height="251" viewBox="0 0 340 251" fill="none" xmlns="http://www.w3.org/2000/svg">
<path d="M156.562 8C156.562 10.072 155.739 12.0591 154.274 13.5243C152.809 14.9894 150.822 15.8125 148.75 15.8125L8.125 15.8125C6.053 15.8125 4.06586 14.9894 2.60073 13.5243C1.1356 12.0591 0.3125 10.072 0.3125 8C0.3125 5.928 1.1356 3.94086 2.60073 2.47573C4.06586 1.0106 6.053 0.1875 8.125 0.1875L148.75 0.1875C150.822 0.1875 152.809 1.0106 154.274 2.47573C155.739 3.94086 156.562 5.928 156.562 8ZM148.75 78.3125H8.125C6.053 78.3125 4.06586 79.1356 2.60073 80.6007C1.1356 82.0659 0.3125 84.053 0.3125 86.125C0.3125 88.197 1.1356 90.1841 2.60073 91.6493C4.06586 93.1144 6.053 93.9375 8.125 93.9375H148.75C150.822 93.9375 152.809 93.1144 154.274 91.6493C155.739 90.1841 156.562 88.197 156.562 86.125C156.562 84.053 155.739 82.0659 154.274 80.6007C152.809 79.1356 150.822 78.3125 148.75 78.3125ZM148.75 156.438H8.125C6.053 156.438 4.06586 157.261 2.60073 158.726C1.1356 160.191 0.3125 162.178 0.3125 164.25C0.3125 166.322 1.1356 168.309 2.60073 169.774C4.06586 171.239 6.053 172.062 8.125 172.062H148.75C150.822 172.062 152.809 171.239 154.274 169.774C155.739 168.309 156.562 166.322 156.562 164.25C156.562 162.178 155.739 160.191 154.274 158.726C152.809 157.261 150.822 156.438 148.75 156.438ZM148.75 234.562H8.125C6.053 234.562 4.06586 235.386 2.60073 236.851C1.1356 238.316 0.3125 240.303 0.3125 242.375C0.3125 244.447 1.1356 246.434 2.60073 247.899C4.06586 249.364 6.053 250.188 8.125 250.188H148.75C150.822 250.188 152.809 249.364 154.274 247.899C155.739 246.434 156.562 244.447 156.562 242.375C156.562 240.303 155.739 238.316 154.274 236.851C152.809 235.386 150.822 234.562 148.75 234.562ZM211.25 15.8125L351.875 15.8125C353.947 15.8125 355.934 14.9894 357.399 13.5243C358.864 12.0591 359.688 10.072 359.688 8C359.688 5.928 358.864 3.94086 357.399 2.47573C355.934 1.0106 353.947 0.1875 351.875 0.1875L211.25 0.1875C209.178 0.1875 207.191 1.0106 205.726 2.47573C204.261 3.94086 203.438 5.928 203.438 8C203.438 10.072 204.261 12.0591 205.726 13.5243C207.191 14.9894 209.178 15.8125 211.25 15.8125ZM351.875 78.3125L211.25 78.3125C209.178 78.3125 207.191 79.1356 205.726 80.6007C204.261 82.0659 203.438 84.053 203.438 86.125C203.438 88.197 204.261 90.1841 205.726 91.6493C207.191 93.1144 209.178 93.9375 211.25 93.9375L351.875 93.9375C353.947 93.9375 355.934 93.1144 357.399 91.6493C358.864 90.1841 359.688 88.197 359.688 86.125C359.688 84.053 358.864 82.0659 357.399 80.6007C355.934 79.1356 353.947 78.3125 351.875 78.3125ZM351.875 156.438H211.25C209.178 156.438 207.191 157.261 205.726 158.726C204.261 160.191 203.438 162.178 203.438 164.25C203.438 166.322 204.261 168.309 205.726 169.774C207.191 171.239 209.178 172.062 211.25 172.062H351.875C353.947 172.062 355.934 171.239 357.399 169.774C358.864 168.309 359.688 166.322 359.688 164.25C359.688 162.178 358.864 160.191 357.399 158.726C355.934 157.261 353.947 156.438 351.875 156.438ZM351.875 234.562H211.25C209.178 234.562 207.191 235.386 205.726 236.851C204.261 238.316 203.438 240.303 203.438 242.375C203.438 244.447 204.261 246.434 205.726 247.899C207.191 249.364 209.178 250.188 211.25 250.188H351.875C353.947 250.188 355.934 249.364 357.399 247.899C358.864 246.434 359.688 244.447 359.688 242.375C359.688 240.303 358.864 238.316 357.399 236.851C355.934 235.386 353.947 234.562 351.875 234.562Z" fill="url(#paint0_linear_13641_92996)"/>
<defs>
<linearGradient id="paint0_linear_13641_92996" x1="12.0267" y1="36.972" x2="462.961" y2="509.021" gradientUnits="userSpaceOnUse">
<stop stop-color="white"/>
<stop offset="0.600476" stop-color="#FFCC79"/>
</linearGradient>
</defs>
</svg>
