<svg width="238" height="238" viewBox="0 0 238 238" fill="none" xmlns="http://www.w3.org/2000/svg">
<path d="M25.25 12.75C25.25 15.2223 24.5169 17.639 23.1434 19.6946C21.7699 21.7503 19.8176 23.3524 17.5335 24.2985C15.2495 25.2446 12.7361 25.4921 10.3114 25.0098C7.88662 24.5275 5.65933 23.337 3.91117 21.5888C2.16302 19.8407 0.972505 17.6134 0.49019 15.1886C0.00787436 12.7639 0.255416 10.2505 1.20151 7.96647C2.14761 5.68239 3.74977 3.73016 5.80538 2.35664C7.86099 0.98312 10.2777 0.250007 12.75 0.250007C16.0652 0.250007 19.2446 1.56697 21.5888 3.91117C23.933 6.25538 25.25 9.4348 25.25 12.75ZM119 0.250007C116.528 0.250007 114.111 0.98312 112.055 2.35664C110 3.73016 108.398 5.68239 107.452 7.96647C106.505 10.2505 106.258 12.7639 106.74 15.1886C107.223 17.6134 108.413 19.8407 110.161 21.5888C111.909 23.337 114.137 24.5275 116.561 25.0098C118.986 25.4921 121.499 25.2446 123.784 24.2985C126.068 23.3524 128.02 21.7503 129.393 19.6946C130.767 17.639 131.5 15.2223 131.5 12.75C131.5 9.4348 130.183 6.25538 127.839 3.91117C125.495 1.56697 122.315 0.250007 119 0.250007ZM225.25 25.25C227.722 25.25 230.139 24.5169 232.195 23.1434C234.25 21.7699 235.852 19.8176 236.798 17.5335C237.745 15.2495 237.992 12.7361 237.51 10.3114C237.028 7.88662 235.837 5.65933 234.089 3.91117C232.341 2.16302 230.113 0.972505 227.689 0.49019C225.264 0.00787436 222.751 0.255416 220.466 1.20151C218.182 2.14761 216.23 3.74977 214.857 5.80538C213.483 7.86099 212.75 10.2777 212.75 12.75C212.75 16.0652 214.067 19.2446 216.411 21.5888C218.755 23.933 221.935 25.25 225.25 25.25ZM12.75 106.5C10.2777 106.5 7.86099 107.233 5.80538 108.607C3.74977 109.98 2.14761 111.932 1.20151 114.216C0.255416 116.501 0.00787436 119.014 0.49019 121.439C0.972505 123.863 2.16302 126.091 3.91117 127.839C5.65933 129.587 7.88662 130.778 10.3114 131.26C12.7361 131.742 15.2495 131.495 17.5335 130.549C19.8176 129.602 21.7699 128 23.1434 125.945C24.5169 123.889 25.25 121.472 25.25 119C25.25 115.685 23.933 112.505 21.5888 110.161C19.2446 107.817 16.0652 106.5 12.75 106.5ZM119 106.5C116.528 106.5 114.111 107.233 112.055 108.607C110 109.98 108.398 111.932 107.452 114.216C106.505 116.501 106.258 119.014 106.74 121.439C107.223 123.863 108.413 126.091 110.161 127.839C111.909 129.587 114.137 130.778 116.561 131.26C118.986 131.742 121.499 131.495 123.784 130.549C126.068 129.602 128.02 128 129.393 125.945C130.767 123.889 131.5 121.472 131.5 119C131.5 115.685 130.183 112.505 127.839 110.161C125.495 107.817 122.315 106.5 119 106.5ZM225.25 106.5C222.778 106.5 220.361 107.233 218.305 108.607C216.25 109.98 214.648 111.932 213.702 114.216C212.755 116.501 212.508 119.014 212.99 121.439C213.472 123.863 214.663 126.091 216.411 127.839C218.159 129.587 220.387 130.778 222.811 131.26C225.236 131.742 227.749 131.495 230.034 130.549C232.318 129.602 234.27 128 235.643 125.945C237.017 123.889 237.75 121.472 237.75 119C237.75 115.685 236.433 112.505 234.089 110.161C231.745 107.817 228.565 106.5 225.25 106.5ZM12.75 212.75C10.2777 212.75 7.86099 213.483 5.80538 214.857C3.74977 216.23 2.14761 218.182 1.20151 220.466C0.255416 222.751 0.00787436 225.264 0.49019 227.689C0.972505 230.113 2.16302 232.341 3.91117 234.089C5.65933 235.837 7.88662 237.028 10.3114 237.51C12.7361 237.992 15.2495 237.745 17.5335 236.798C19.8176 235.852 21.7699 234.25 23.1434 232.195C24.5169 230.139 25.25 227.722 25.25 225.25C25.25 221.935 23.933 218.755 21.5888 216.411C19.2446 214.067 16.0652 212.75 12.75 212.75ZM119 212.75C116.528 212.75 114.111 213.483 112.055 214.857C110 216.23 108.398 218.182 107.452 220.466C106.505 222.751 106.258 225.264 106.74 227.689C107.223 230.113 108.413 232.341 110.161 234.089C111.909 235.837 114.137 237.028 116.561 237.51C118.986 237.992 121.499 237.745 123.784 236.798C126.068 235.852 128.02 234.25 129.393 232.195C130.767 230.139 131.5 227.722 131.5 225.25C131.5 221.935 130.183 218.755 127.839 216.411C125.495 214.067 122.315 212.75 119 212.75ZM225.25 212.75C222.778 212.75 220.361 213.483 218.305 214.857C216.25 216.23 214.648 218.182 213.702 220.466C212.755 222.751 212.508 225.264 212.99 227.689C213.472 230.113 214.663 232.341 216.411 234.089C218.159 235.837 220.387 237.028 222.811 237.51C225.236 237.992 227.749 237.745 230.034 236.798C232.318 235.852 234.27 234.25 235.643 232.195C237.017 230.139 237.75 227.722 237.75 225.25C237.75 221.935 236.433 218.755 234.089 216.411C231.745 214.067 228.565 212.75 225.25 212.75Z" fill="url(#paint0_linear_13641_92993)"/>
<defs>
<linearGradient id="paint0_linear_13641_92993" x1="119" y1="356.5" x2="344.5" y2="-362" gradientUnits="userSpaceOnUse">
<stop stop-color="white"/>
<stop offset="0.641181" stop-color="#00BB84"/>
</linearGradient>
</defs>
</svg>
