<svg width="70" height="70" viewBox="0 0 70 70" fill="none" xmlns="http://www.w3.org/2000/svg">
<path d="M56.8744 39.375C56.8799 40.2669 56.609 41.1386 56.0987 41.8702C55.5885 42.6017 54.8641 43.1572 54.0252 43.4602L39.9213 48.6719L34.726 62.7867C34.4183 63.6225 33.8617 64.3439 33.1312 64.8534C32.4007 65.3629 31.5314 65.6361 30.6408 65.6361C29.7502 65.6361 28.8809 65.3629 28.1504 64.8534C27.4199 64.3439 26.8633 63.6225 26.5556 62.7867L21.3275 48.6719L7.21268 43.4766C6.37686 43.1689 5.65552 42.6123 5.146 41.8818C4.63647 41.1513 4.36328 40.2821 4.36328 39.3914C4.36328 38.5008 4.63647 37.6315 5.146 36.901C5.65552 36.1705 6.37686 35.6139 7.21268 35.3062L21.3275 30.0781L26.5228 15.9633C26.8305 15.1275 27.3871 14.4061 28.1176 13.8966C28.8481 13.3871 29.7173 13.1139 30.608 13.1139C31.4986 13.1139 32.3678 13.3871 33.0984 13.8966C33.8289 14.4061 34.3855 15.1275 34.6931 15.9633L39.9213 30.0781L54.0361 35.2734C54.8756 35.5791 55.5996 36.1379 56.108 36.8726C56.6164 37.6072 56.8842 38.4816 56.8744 39.375ZM41.5619 13.125H45.9369V17.5C45.9369 18.0802 46.1674 18.6366 46.5776 19.0468C46.9878 19.457 47.5442 19.6875 48.1244 19.6875C48.7046 19.6875 49.261 19.457 49.6712 19.0468C50.0814 18.6366 50.3119 18.0802 50.3119 17.5V13.125H54.6869C55.2671 13.125 55.8235 12.8945 56.2337 12.4843C56.6439 12.0741 56.8744 11.5177 56.8744 10.9375C56.8744 10.3573 56.6439 9.80094 56.2337 9.3907C55.8235 8.98047 55.2671 8.75 54.6869 8.75H50.3119V4.375C50.3119 3.79484 50.0814 3.23844 49.6712 2.8282C49.261 2.41797 48.7046 2.1875 48.1244 2.1875C47.5442 2.1875 46.9878 2.41797 46.5776 2.8282C46.1674 3.23844 45.9369 3.79484 45.9369 4.375V8.75H41.5619C40.9817 8.75 40.4253 8.98047 40.0151 9.3907C39.6049 9.80094 39.3744 10.3573 39.3744 10.9375C39.3744 11.5177 39.6049 12.0741 40.0151 12.4843C40.4253 12.8945 40.9817 13.125 41.5619 13.125ZM65.6244 21.875H63.4369V19.6875C63.4369 19.1073 63.2064 18.5509 62.7962 18.1407C62.386 17.7305 61.8296 17.5 61.2494 17.5C60.6692 17.5 60.1128 17.7305 59.7026 18.1407C59.2924 18.5509 59.0619 19.1073 59.0619 19.6875V21.875H56.8744C56.2942 21.875 55.7378 22.1055 55.3276 22.5157C54.9174 22.9259 54.6869 23.4823 54.6869 24.0625C54.6869 24.6427 54.9174 25.1991 55.3276 25.6093C55.7378 26.0195 56.2942 26.25 56.8744 26.25H59.0619V28.4375C59.0619 29.0177 59.2924 29.5741 59.7026 29.9843C60.1128 30.3945 60.6692 30.625 61.2494 30.625C61.8296 30.625 62.386 30.3945 62.7962 29.9843C63.2064 29.5741 63.4369 29.0177 63.4369 28.4375V26.25H65.6244C66.2046 26.25 66.761 26.0195 67.1712 25.6093C67.5814 25.1991 67.8119 24.6427 67.8119 24.0625C67.8119 23.4823 67.5814 22.9259 67.1712 22.5157C66.761 22.1055 66.2046 21.875 65.6244 21.875Z" fill="url(#paint0_linear_9539_78622)"/>
<defs>
<linearGradient id="paint0_linear_9539_78622" x1="-36.5" y1="54" x2="87.5" y2="19" gradientUnits="userSpaceOnUse">
<stop stop-color="#FA4070"/>
<stop offset="1" stop-color="white"/>
</linearGradient>
</defs>
</svg>
