<svg width="976" height="467" viewBox="0 0 976 467" fill="none" xmlns="http://www.w3.org/2000/svg">
<line x1="907.666" y1="204.344" x2="685.666" y2="314.344" stroke="#F3F3F3" stroke-width="3" stroke-dasharray="10 10"/>
<line x1="663.232" y1="321.482" x2="55.2316" y2="416.482" stroke="#F3F3F3" stroke-width="3" stroke-dasharray="10 10"/>
<line x1="914.362" y1="19.4556" x2="693.362" y2="74.4556" stroke="#F3F3F3" stroke-width="3" stroke-dasharray="10 10"/>
<line x1="915.499" y1="18.0564" x2="908.499" y2="204.056" stroke="#F3F3F3" stroke-width="3" stroke-dasharray="10 10"/>
<circle cx="914.5" cy="17.5" r="17.5" fill="url(#paint0_linear_12750_88505)"/>
<line x1="906.221" y1="204.282" x2="692.221" y2="74.282" stroke="#F3F3F3" stroke-width="3" stroke-dasharray="10 10"/>
<line x1="163.929" y1="96.5017" x2="692.929" y2="71.5017" stroke="#F3F3F3" stroke-width="3" stroke-dasharray="10 10"/>
<line x1="165.417" y1="98.4933" x2="56.4166" y2="411.493" stroke="#F3F3F3" stroke-width="3" stroke-dasharray="10 10"/>
<path d="M201.529 63.3398H125.904C124.006 63.3398 122.467 64.8789 122.467 66.7773V128.652C122.467 130.551 124.006 132.09 125.904 132.09H201.529C203.428 132.09 204.967 130.551 204.967 128.652V66.7773C204.967 64.8789 203.428 63.3398 201.529 63.3398Z" fill="url(#paint1_linear_12750_88505)"/>
<path d="M174.029 90.8398H191.217" stroke="white" stroke-width="3" stroke-linecap="round" stroke-linejoin="round"/>
<path d="M174.029 104.59H191.217" stroke="white" stroke-width="3" stroke-linecap="round" stroke-linejoin="round"/>
<path d="M149.967 104.59C155.662 104.59 160.279 99.9728 160.279 94.2773C160.279 88.5819 155.662 83.9648 149.967 83.9648C144.271 83.9648 139.654 88.5819 139.654 94.2773C139.654 99.9728 144.271 104.59 149.967 104.59Z" stroke="white" stroke-width="3" stroke-linecap="round" stroke-linejoin="round"/>
<path d="M136.217 114.902C137.742 108.973 143.56 104.59 149.967 104.59C156.373 104.59 162.196 108.968 163.717 114.902" stroke="white" stroke-width="3" stroke-linecap="round" stroke-linejoin="round"/>
<path d="M96.6119 449.174V392.299C96.6119 389.537 94.3734 387.299 91.6119 387.299H80.9869C78.2255 387.299 75.9869 385.06 75.9869 382.299V378.549C75.9869 375.787 73.7484 373.549 70.9869 373.549H39.7369C36.9755 373.549 34.7369 375.787 34.7369 378.549V396.049C34.7369 398.81 32.4984 401.049 29.7369 401.049H19.0945C16.3399 401.049 14.1041 403.272 14.0945 406.027C14.0624 415.21 13.9926 435.159 13.9434 449.217" fill="url(#paint2_linear_12750_88505)"/>
<path d="M51.9238 387.299H58.7988" stroke="white" stroke-width="3" stroke-linecap="round" stroke-linejoin="round"/>
<path d="M51.9238 401.049H58.7988" stroke="white" stroke-width="3" stroke-linecap="round" stroke-linejoin="round"/>
<path d="M75.9863 401.049H82.8613" stroke="white" stroke-width="3" stroke-linecap="round" stroke-linejoin="round"/>
<path d="M27.8613 414.799H34.7363" stroke="white" stroke-width="3" stroke-linecap="round" stroke-linejoin="round"/>
<path d="M27.8613 428.549H34.7363" stroke="white" stroke-width="3" stroke-linecap="round" stroke-linejoin="round"/>
<path d="M51.9238 414.799H58.7988" stroke="white" stroke-width="3" stroke-linecap="round" stroke-linejoin="round"/>
<path d="M77.9199 415.316H84.7949" stroke="white" stroke-width="3" stroke-linecap="round" stroke-linejoin="round"/>
<path d="M75.9863 428.549H82.8613" stroke="white" stroke-width="3" stroke-linecap="round" stroke-linejoin="round"/>
<path d="M48.4863 447.715V428.549H62.2363V447.715" stroke="white" stroke-width="3" stroke-linecap="round" stroke-linejoin="round"/>
<circle cx="693" cy="73" r="20" fill="url(#paint3_linear_12750_88505)"/>
<line x1="908.464" y1="203.675" x2="957.464" y2="424.675" stroke="#F3F3F3" stroke-width="3" stroke-dasharray="10 10"/>
<path d="M674 289C666.709 289.008 659.719 291.908 654.564 297.064C649.408 302.219 646.508 309.209 646.5 316.5C646.5 340.031 671.5 357.803 672.566 358.547C672.986 358.841 673.487 358.999 674 358.999C674.513 358.999 675.014 358.841 675.434 358.547C676.5 357.803 701.5 340.031 701.5 316.5C701.492 309.209 698.592 302.219 693.436 297.064C688.281 291.908 681.291 289.008 674 289ZM674 306.5C675.978 306.5 677.911 307.086 679.556 308.185C681.2 309.284 682.482 310.846 683.239 312.673C683.996 314.5 684.194 316.511 683.808 318.451C683.422 320.391 682.47 322.173 681.071 323.571C679.673 324.97 677.891 325.922 675.951 326.308C674.011 326.694 672 326.496 670.173 325.739C668.346 324.982 666.784 323.7 665.685 322.056C664.586 320.411 664 318.478 664 316.5C664 313.848 665.054 311.304 666.929 309.429C668.804 307.554 671.348 306.5 674 306.5Z" fill="url(#paint4_linear_12750_88505)"/>
<circle cx="907" cy="203" r="10" fill="url(#paint5_linear_12750_88505)"/>
<circle cx="956" cy="425" r="20" fill="url(#paint6_linear_12750_88505)"/>
<defs>
<linearGradient id="paint0_linear_12750_88505" x1="945" y1="-20" x2="897" y2="54" gradientUnits="userSpaceOnUse">
<stop stop-color="#112A5C"/>
<stop offset="1" stop-color="white"/>
</linearGradient>
<linearGradient id="paint1_linear_12750_88505" x1="-69.3968" y1="143.491" x2="268.788" y2="55.6149" gradientUnits="userSpaceOnUse">
<stop stop-color="#00BB84"/>
<stop offset="1" stop-color="white"/>
</linearGradient>
<linearGradient id="paint2_linear_12750_88505" x1="159.975" y1="391.029" x2="-172.944" y2="491.797" gradientUnits="userSpaceOnUse">
<stop stop-color="white"/>
<stop offset="1" stop-color="#FFB53E"/>
</linearGradient>
<linearGradient id="paint3_linear_12750_88505" x1="666" y1="60" x2="706" y2="93" gradientUnits="userSpaceOnUse">
<stop stop-color="#7684A1"/>
<stop offset="1" stop-color="white"/>
</linearGradient>
<linearGradient id="paint4_linear_12750_88505" x1="626.019" y1="295.636" x2="733.119" y2="338.288" gradientUnits="userSpaceOnUse">
<stop stop-color="#45C4FF"/>
<stop offset="1" stop-color="white"/>
</linearGradient>
<linearGradient id="paint5_linear_12750_88505" x1="942" y1="239.5" x2="886" y2="182.5" gradientUnits="userSpaceOnUse">
<stop stop-color="#7684A1"/>
<stop offset="1" stop-color="white"/>
</linearGradient>
<linearGradient id="paint6_linear_12750_88505" x1="976" y1="445" x2="936" y2="393.5" gradientUnits="userSpaceOnUse">
<stop stop-color="#112A5C"/>
<stop offset="1" stop-color="white"/>
</linearGradient>
</defs>
</svg>
