<?xml version="1.0" encoding="UTF-8"?>
<svg width="77px" height="106px" viewBox="0 0 77 106" version="1.1" xmlns="http://www.w3.org/2000/svg" xmlns:xlink="http://www.w3.org/1999/xlink">
    <!-- Generator: Sketch 51.3 (57544) - http://www.bohemiancoding.com/sketch -->
    <title>Shape</title>
    <desc>Created with Sketch.</desc>
    <defs>
        <linearGradient x1="50%" y1="247.915475%" x2="50%" y2="-116.257981%" id="linearGradient-1">
            <stop stop-color="#FFFFFF" offset="0%"></stop>
            <stop stop-color="#CCCAAE" offset="100%"></stop>
        </linearGradient>
    </defs>
    <g id="Page-1" stroke="none" stroke-width="1" fill="none" fill-rule="evenodd">
        <g id="Landing-page" transform="translate(-1108.000000, -1337.000000)" fill="url(#linearGradient-1)" fill-rule="nonzero">
            <g id="Group-8" transform="translate(822.000000, 1337.000000)">
                <path d="M320.543323,103.861342 C291.408047,60.252497 286,55.7768965 286,39.7499903 C286,17.7966089 303.236971,0 324.5,0 C345.763029,0 363,17.7966089 363,39.7499903 C363,55.7768965 357.591953,60.252497 328.456677,103.861342 C326.544711,106.71299 322.455089,106.712783 320.543323,103.861342 Z M324,56 C332.8366,56 340,48.6127437 340,39.5 C340,30.3872563 332.8366,23 324,23 C315.1634,23 308,30.3872563 308,39.5 C308,48.6127437 315.1634,56 324,56 Z" id="Shape"></path>
            </g>
        </g>
    </g>
</svg>